<?xml version="1.0" encoding="UTF-8" standalone="no"?>
<!-- Created with Inkscape (http://www.inkscape.org/) -->

<svg
   xmlns:dc="http://purl.org/dc/elements/1.1/"
   xmlns:cc="http://creativecommons.org/ns#"
   xmlns:rdf="http://www.w3.org/1999/02/22-rdf-syntax-ns#"
   xmlns:svg="http://www.w3.org/2000/svg"
   xmlns="http://www.w3.org/2000/svg"
   xmlns:sodipodi="http://sodipodi.sourceforge.net/DTD/sodipodi-0.dtd"
   xmlns:inkscape="http://www.inkscape.org/namespaces/inkscape"
   width="4960.629883"
   height="2480.314941"
   id="svg5268"
   version="1.1"
   inkscape:version="0.48.5 r10040"
   sodipodi:docname="New document 18">
  <defs
     id="defs5270" />
  <sodipodi:namedview
     id="base"
     pagecolor="#ffffff"
     bordercolor="#666666"
     borderopacity="1.0"
     inkscape:pageopacity="0.0"
     inkscape:pageshadow="2"
     inkscape:zoom="0.1237436868"
     inkscape:cx="2116.858018"
     inkscape:cy="1495.09183"
     inkscape:document-units="mm"
     inkscape:current-layer="layer1"
     showgrid="false"
     units="mm"
     inkscape:window-width="1259"
     inkscape:window-height="730"
     inkscape:window-x="150"
     inkscape:window-y="150"
     inkscape:window-maximized="0" />
  <metadata
     id="metadata5273">
    <rdf:RDF>
      <cc:Work
         rdf:about="">
        <dc:format>image/svg+xml</dc:format>
        <dc:type
           rdf:resource="http://purl.org/dc/dcmitype/StillImage" />
        <dc:title></dc:title>
      </cc:Work>
    </rdf:RDF>
  </metadata>
  <g
     inkscape:label="Layer 1"
     inkscape:groupmode="layer"
     id="layer1"
     transform="translate(0,1427.952635)">
    <path
       style="fill:#000000;fill-opacity:0.1315789316;stroke:#000000;stroke-width:0.9992126226;stroke-linejoin:round;stroke-miterlimit:4;stroke-opacity:1;stroke-dasharray:none"
       d="m 847.9088775,-1401.451414 0,28.34375 -134.78125,0 -67.375,116.71875 -24.5625,-14.15625 -17.6875,30.65625 24.53125,14.15625 -14.34375,24.875 21.4375,12.40625 2.5,-4.3125 9.1875,5.3125 -2.46875,4.3125 9.21875,5.3125 -6.71875,11.6875 -9.25,-5.34375 -2.46875,4.3125 -9.21875,-5.3125 2.5,-4.3125 -21.46875,-12.375 -14.34375,24.84375 -24.53125,-14.1875 -17.71875,30.6875 24.53125,14.1875 -168.46875,291.8124995 -24.5625,-14.1875 -17.71875,30.71875 24.5625,14.15625 -14.34375,24.84375 21.4375,12.40625 2.5,-4.3125 9.1875,5.3125 -2.46875,4.3125 9.21875,5.3125 -6.71875,11.65625 -9.25,-5.3125 -2.46875,4.28125 -9.21875,-5.3125 2.5,-4.28125 -21.46875,-12.40625 -14.34375,24.875 -24.5625,-14.15625 -17.6875,30.6562501 24.53125,14.15625 -168.46875,291.84375 -24.5625,-14.1875 -17.7187499,30.6875 24.5624999,14.1875 -14.375,24.875 21.46875,12.375 2.46875,-4.3125 9.21875,5.3125 -2.5,4.3125 9.25,5.34375 -6.75,11.65625 -9.21875,-5.34375 -2.5,4.3125 -9.1875,-5.3125 2.46875,-4.3125 -21.4374999,-12.375 -14.34375,24.84375 -24.56250005,-14.1875 -17.71875,30.71875 24.5625,14.15625 -67.40625,116.71875 67.40625,116.71874998 -24.5625,14.1875 17.71875,30.6875 24.56250005,-14.1875 14.34375,24.84375 21.4374999,-12.375 -2.46875,-4.3125 9.1875,-5.3125 2.5,4.3125 9.21875,-5.34375 6.75,11.6875 -9.25,5.3125 2.5,4.3125 -9.21875,5.3125 -2.46875,-4.3125 -21.46875,12.406250001 14.375,24.874999999 -24.5624999,14.15625 17.7187499,30.6875 24.5625,-14.15625 168.46875,291.81249982 -24.53125,14.15625 17.6875,30.6875 24.5625,-14.1875 14.34375,24.875 21.46875,-12.375 -2.5,-4.3125 9.21875,-5.3125 2.46875,4.3125 9.25,-5.34375 6.71875,11.65625 -9.21875,5.34375 2.46875,4.3125 -9.1875,5.3125 -2.5,-4.3125 -21.4375,12.375 14.34375,24.84375 -24.5625,14.1875 17.71875,30.6875 24.5625,-14.1875 168.46875,291.84375 -24.53125,14.15625 17.71875,30.6875 24.53125,-14.15625 14.34375,24.84375 21.46875,-12.40625 -2.5,-4.28125 9.21875,-5.3125 2.46875,4.28125 9.25,-5.3125 6.71875,11.65625 -9.21875,5.34375 2.46875,4.28125 -9.1875,5.3125 -2.5,-4.28125 -21.4375,12.375 14.34375,24.875 -24.53125,14.15625 17.6875,30.6875 24.5625,-14.1875 67.375,116.71875 134.78125,0 0,28.3437496 35.4375,0 0,-28.3437496 28.6875,0 0,-24.78125 -4.96875,0 0,-10.625 4.96875,0 0,-10.65625 13.46875,0 0,10.65625 4.9687498,0 0,10.625 -4.9687498,0 0,24.78125 28.7187498,0 0,28.3437496 35.4375,0 0,-28.3437496 336.9687497,0 0,28.3437496 35.40625,0 0,-28.3437496 28.71875,0 0,-24.78125 -4.96875,0 0,-10.625 4.96875,0 0,-10.65625 13.46875,0 0,10.65625 4.96875,0 0,10.625 -4.96875,0 0,24.78125 28.6875,0 0,28.3437496 35.4375,0 0,-28.3437496 336.968749,0 0,28.3437496 35.4375,0 0,-28.3437496 28.6875,0 0,-24.78125 -4.96875,0 0,-10.625 4.96875,0 0,-10.65625 13.46875,0 0,10.65625 4.96875,0 0,10.625 -4.96875,0 0,24.78125 28.71875,0 0,28.3437496 35.40625,0 0,-28.3437496 134.78125,0 67.375,-116.71875 24.5625,14.1875 17.6875,-30.6875 -24.53125,-14.15625 14.34375,-24.875 -21.4375,-12.375 -2.5,4.28125 -9.1875,-5.3125 2.46875,-4.28125 -9.21875,-5.34375 6.71875,-11.65625 9.25,5.3125 2.46875,-4.28125 9.21875,5.3125 -2.5,4.28125 21.46875,12.40625 14.34375,-24.84375 24.53125,14.15625 17.71875,-30.6875 -24.53125,-14.15625 168.46875,-291.84375 24.5625,14.1875 17.71875,-30.6875 -24.5625,-14.1875 14.34375,-24.84375 -21.4375,-12.375 -2.5,4.3125 -9.1875,-5.3125 2.46875,-4.3125 -9.21875,-5.34375 6.71875,-11.65625 9.25,5.34375 2.46875,-4.3125 9.21875,5.3125 -2.5,4.3125 21.46875,12.375 14.34375,-24.875 24.5625,14.1875 17.6875,-30.6875 -24.53125,-14.15625 168.46875,-291.81249982 24.5625,14.15625 17.71875,-30.6875 -24.5625,-14.15625 14.375,-24.874999999 -21.46875,-12.406250001 -2.46875,4.3125 -9.21875,-5.3125 2.5,-4.3125 -9.25,-5.3125 6.75,-11.6875 9.21875,5.34375 2.5,-4.3125 9.1875,5.3125 -2.46875,4.3125 21.4375,12.375 14.34375,-24.84375 24.5625,14.1875 17.71875,-30.6875 -24.5625,-14.1875 67.40625,-116.71874998 -67.40625,-116.71875 24.5625,-14.15625 -17.71875,-30.71875 -24.5625,14.1875 -14.34375,-24.84375 -21.4375,12.375 2.46875,4.3125 -9.1875,5.3125 -2.5,-4.3125 -9.21875,5.34375 -6.75,-11.65625 9.25,-5.34375 -2.5,-4.3125 9.21875,-5.3125 2.46875,4.3125 21.46875,-12.375 -14.375,-24.875 24.5625,-14.1875 -17.71875,-30.6875 -24.5625,14.1875 -168.46875,-291.84375 24.53125,-14.15625 -17.6875,-30.6562501 -24.5625,14.15625 -14.34375,-24.875 -21.46875,12.40625 2.5,4.28125 -9.21875,5.3125 -2.46875,-4.28125 -9.25,5.3125 -6.71875,-11.65625 9.21875,-5.3125 -2.46875,-4.3125 9.1875,-5.3125 2.5,4.3125 21.4375,-12.40625 -14.34375,-24.84375 24.5625,-14.15625 -17.71875,-30.71875 -24.5625,14.1875 -168.46875,-291.8124995 24.53125,-14.1875 -17.71875,-30.6875 -24.53125,14.1875 -14.34375,-24.84375 -21.46875,12.375 2.5,4.3125 -9.21875,5.3125 -2.46875,-4.3125 -9.25,5.34375 -6.71875,-11.6875 9.21875,-5.3125 -2.46875,-4.3125 9.1875,-5.3125 2.5,4.3125 21.4375,-12.40625 -14.34375,-24.875 24.53125,-14.15625 -17.6875,-30.65625 -24.5625,14.15625 -67.375,-116.71875 -134.78125,0 0,-28.34375 -35.40625,0 0,28.34375 -28.71875,0 0,24.78125 4.96875,0 0,10.625 -4.96875,0 0,10.65625 -13.46875,0 0,-10.65625 -4.96875,0 0,-10.625 4.96875,0 0,-24.78125 -28.6875,0 0,-28.34375 -35.4375,0 0,28.34375 -336.968749,0 0,-28.34375 -35.4375,0 0,28.34375 -28.6875,0 0,24.78125 4.96875,0 0,10.625 -4.96875,0 0,10.65625 -13.46875,0 0,-10.65625 -4.96875,0 0,-10.625 4.96875,0 0,-24.78125 -28.71875,0 0,-28.34375 -35.40625,0 0,28.34375 -336.9687497,0 0,-28.34375 -35.4375,0 0,28.34375 -28.7187498,0 0,24.78125 4.9687498,0 0,10.625 -4.9687498,0 0,10.65625 -13.46875,0 0,-10.65625 -4.96875,0 0,-10.625 4.96875,0 0,-24.78125 -28.6875,0 0,-28.34375 -35.4375,0 z m -91.53125,57.1875 5.65625,9.8125 -39.875,23.03125 -5.6875,-9.8125 39.90625,-23.03125 z m 85.4375,0 39.90625,23.03125 -5.65625,9.8125 -39.90625,-23.03125 5.65625,-9.8125 z m 153.9062498,0 5.6874997,9.8125 -39.9062497,23.03125 -5.65625,-9.8125 39.875,-23.03125 z m 85.4687497,0 39.875,23.03125 -5.65625,9.8125 -39.90625,-23.03125 5.6875,-9.8125 z m 153.875,0 5.6875,9.8125 -39.90625,23.03125 -5.65625,-9.8125 39.875,-23.03125 z m 85.46875,0 39.875,23.03125 -5.65625,9.8125 -39.875,-23.03125 5.65625,-9.8125 z m 153.90625,0 5.65625,9.8125 -39.875,23.03125 -5.6875,-9.8125 39.90625,-23.03125 z m 85.437499,0 39.90625,23.03125 -5.6875,9.8125 -39.875,-23.03125 5.65625,-9.8125 z m 153.90625,0 5.65625,9.8125 -39.875,23.03125 -5.6875,-9.8125 39.90625,-23.03125 z m 85.4375,0 39.90625,23.03125 -5.6875,9.8125 -39.875,-23.03125 5.65625,-9.8125 z m 153.90625,0 5.65625,9.8125 -39.875,23.03125 -5.65625,-9.8125 39.875,-23.03125 z m 85.46875,0 39.875,23.03125 -5.65625,9.8125 -39.90625,-23.03125 5.6875,-9.8125 z m -1364.8437485,97.03125 11.34375,0 0,46.0625 -11.34375,0 0,-46.0625 z m 239.34375,0 11.34375,0 0,46.0625 -11.34375,0 0,-46.0625 z m 239.3749995,0 11.3125,0 0,46.0625 -11.3125,0 0,-46.0625 z m 239.34375,0 11.34375,0 0,46.0625 -11.34375,0 0,-46.0625 z m 239.343749,0 11.34375,0 0,46.0625 -11.34375,0 0,-46.0625 z m 239.34375,0 11.34375,0 0,46.0625 -11.34375,0 0,-46.0625 z m 239.34375,0 11.34375,0 0,46.0625 -11.34375,0 0,-46.0625 z m -1473.1562485,110.25 5.6875,9.8125 -39.90625,23.03125 -5.65625,-9.8125 39.875,-23.03125 z m 85.46875,0 39.875,23.03125 -5.65625,9.8125 -39.90625,-23.03125 5.6875,-9.8125 z m 153.90625,0 5.65625,9.8125 -39.90625,23.03125 -5.65625,-9.8125 39.90625,-23.03125 z m 85.4374998,0 39.9062497,23.03125 -5.6874997,9.8125 -39.875,-23.03125 5.65625,-9.8125 z m 153.9062497,0 5.65625,9.8125 -39.875,23.03125 -5.6875,-9.8125 39.90625,-23.03125 z m 85.4375,0 39.90625,23.03125 -5.6875,9.8125 -39.875,-23.03125 5.65625,-9.8125 z m 153.90625,0 5.65625,9.8125 -39.875,23.03125 -5.65625,-9.8125 39.875,-23.03125 z m 85.46875,0 39.875,23.03125 -5.65625,9.8125 -39.90625,-23.03125 5.6875,-9.8125 z m 153.874999,0 5.6875,9.8125 -39.90625,23.03125 -5.65625,-9.8125 39.875,-23.03125 z m 85.46875,0 39.875,23.03125 -5.65625,9.8125 -39.90625,-23.03125 5.6875,-9.8125 z m 153.875,0 5.6875,9.8125 -39.90625,23.03125 -5.65625,-9.8125 39.875,-23.03125 z m 85.46875,0 39.875,23.03125 -5.65625,9.8125 -39.875,-23.03125 5.65625,-9.8125 z m 153.90625,0 5.65625,9.8125 -39.875,23.03125 -5.6875,-9.8125 39.90625,-23.03125 z m 85.4375,0 39.90625,23.03125 -5.6875,9.8125 -39.875,-23.03125 5.65625,-9.8125 z m -1604.1562485,97.031249 11.3125,0 0,46.0625006 -11.3125,0 0,-46.0625006 z m 239.34375,0 11.34375,0 0,46.0625006 -11.34375,0 0,-46.0625006 z m 239.3437495,0 11.34375,0 0,46.0625006 -11.34375,0 0,-46.0625006 z m 239.34375,0 11.34375,0 0,46.0625006 -11.34375,0 0,-46.0625006 z m 239.34375,0 11.34375,0 0,46.0625006 -11.34375,0 0,-46.0625006 z m 239.374999,0 11.34375,0 0,46.0625006 -11.34375,0 0,-46.0625006 z m 239.34375,0 11.34375,0 0,46.0625006 -11.34375,0 0,-46.0625006 z m 239.34375,0 11.34375,0 0,46.0625006 -11.34375,0 0,-46.0625006 z m -1712.4999985,110.2500005 5.65625,9.8125 -39.875,23.03125 -5.6875,-9.8125 39.90625,-23.03125 z m 85.4375,0 39.90625,23.03125 -5.6875,9.8125 -39.875,-23.03125 5.65625,-9.8125 z m 153.90625,0 5.65625,9.8125 -39.875,23.03125 -5.6875,-9.8125 39.90625,-23.03125 z m 85.4375,0 39.90625,23.03125 -5.65625,9.8125 -39.90625,-23.03125 5.65625,-9.8125 z m 153.9062498,0 5.6874997,9.8125 -39.9062497,23.03125 -5.65625,-9.8125 39.875,-23.03125 z m 85.4687497,0 39.875,23.03125 -5.65625,9.8125 -39.90625,-23.03125 5.6875,-9.8125 z m 153.875,0 5.6875,9.8125 -39.90625,23.03125 -5.65625,-9.8125 39.875,-23.03125 z m 85.46875,0 39.875,23.03125 -5.65625,9.8125 -39.90625,-23.03125 5.6875,-9.8125 z m 153.90625,0 5.65625,9.8125 -39.875,23.03125 -5.6875,-9.8125 39.90625,-23.03125 z m 85.437499,0 39.90625,23.03125 -5.6875,9.8125 -39.875,-23.03125 5.65625,-9.8125 z m 153.90625,0 5.65625,9.8125 -39.875,23.03125 -5.6875,-9.8125 39.90625,-23.03125 z m 85.4375,0 39.90625,23.03125 -5.6875,9.8125 -39.875,-23.03125 5.65625,-9.8125 z m 153.90625,0 5.65625,9.8125 -39.875,23.03125 -5.65625,-9.8125 39.875,-23.03125 z m 85.46875,0 39.875,23.03125 -5.65625,9.8125 -39.90625,-23.03125 5.6875,-9.8125 z m 153.875,0 5.6875,9.8125 -39.90625,23.03125 -5.65625,-9.8125 39.875,-23.03125 z m 85.46875,0 39.875,23.03125 -5.65625,9.8125 -39.90625,-23.03125 5.6875,-9.8125 z m -1843.5312485,97.03125 11.34375,0 0,46.0625 -11.34375,0 0,-46.0625 z m 239.34375,0 11.34375,0 0,46.0625 -11.34375,0 0,-46.0625 z m 239.34375,0 11.34375,0 0,46.0625 -11.34375,0 0,-46.0625 z m 239.3749995,0 11.3125,0 0,46.0625 -11.3125,0 0,-46.0625 z m 239.34375,0 11.34375,0 0,46.0625 -11.34375,0 0,-46.0625 z m 239.343749,0 11.34375,0 0,46.0625 -11.34375,0 0,-46.0625 z m 239.34375,0 11.34375,0 0,46.0625 -11.34375,0 0,-46.0625 z m 239.34375,0 11.34375,0 0,46.0625 -11.34375,0 0,-46.0625 z m 239.375,0 11.34375,0 0,46.0625 -11.34375,0 0,-46.0625 z m -1951.8749985,110.2500001 5.6875,9.8125 -39.90625,23.03125 -5.65625,-9.8125 39.875,-23.03125 z m 85.46875,0 39.875,23.03125 -5.65625,9.8125 -39.90625,-23.03125 5.6875,-9.8125 z m 153.875,0 5.6875,9.8125 -39.90625,23.03125 -5.65625,-9.8125 39.875,-23.03125 z m 85.46875,0 39.875,23.03125 -5.65625,9.8125 -39.90625,-23.03125 5.6875,-9.8125 z m 153.90625,0 5.65625,9.8125 -39.90625,23.03125 -5.65625,-9.8125 39.90625,-23.03125 z m 85.4374998,0 39.9062497,23.03125 -5.6874997,9.8125 -39.875,-23.03125 5.65625,-9.8125 z m 153.9062497,0 5.65625,9.8125 -39.875,23.03125 -5.6875,-9.8125 39.90625,-23.03125 z m 85.4375,0 39.90625,23.03125 -5.6875,9.8125 -39.875,-23.03125 5.65625,-9.8125 z m 153.90625,0 5.65625,9.8125 -39.875,23.03125 -5.6875,-9.8125 39.90625,-23.03125 z m 85.46875,0 39.875,23.03125 -5.65625,9.8125 -39.90625,-23.03125 5.6875,-9.8125 z m 153.874999,0 5.6875,9.8125 -39.90625,23.03125 -5.65625,-9.8125 39.875,-23.03125 z m 85.46875,0 39.875,23.03125 -5.65625,9.8125 -39.90625,-23.03125 5.6875,-9.8125 z m 153.875,0 5.6875,9.8125 -39.90625,23.03125 -5.65625,-9.8125 39.875,-23.03125 z m 85.46875,0 39.875,23.03125 -5.65625,9.8125 -39.875,-23.03125 5.65625,-9.8125 z m 153.90625,0 5.65625,9.8125 -39.875,23.03125 -5.6875,-9.8125 39.90625,-23.03125 z m 85.4375,0 39.90625,23.03125 -5.6875,9.8125 -39.875,-23.03125 5.65625,-9.8125 z m 153.90625,0 5.65625,9.8125 -39.875,23.03125 -5.6875,-9.8125 39.90625,-23.03125 z m 85.4375,0 39.90625,23.03125 -5.6875,9.8125 -39.875,-23.03125 5.65625,-9.8125 z m -2082.8749985,97.03125 11.34375,0 0,46.0625 -11.34375,0 0,-46.0625 z m 239.375,0 11.3125,0 0,46.0625 -11.3125,0 0,-46.0625 z m 239.34375,0 11.34375,0 0,46.0625 -11.34375,0 0,-46.0625 z m 239.3437495,0 11.34375,0 0,46.0625 -11.34375,0 0,-46.0625 z m 239.34375,0 11.34375,0 0,46.0625 -11.34375,0 0,-46.0625 z m 239.34375,0 11.34375,0 0,46.0625 -11.34375,0 0,-46.0625 z m 239.374999,0 11.34375,0 0,46.0625 -11.34375,0 0,-46.0625 z m 239.34375,0 11.34375,0 0,46.0625 -11.34375,0 0,-46.0625 z m 239.34375,0 11.34375,0 0,46.0625 -11.34375,0 0,-46.0625 z m 239.34375,0 11.34375,0 0,46.0625 -11.34375,0 0,-46.0625 z m -2191.1874985,110.25 5.65625,9.8125 -39.90625,23.03125 -5.65625,-9.8125 39.90625,-23.03125 z m 85.4375,0 39.90625,23.03125 -5.6875,9.8125 -39.875,-23.03125 5.65625,-9.8125 z m 153.90625,0 5.65625,9.8125 -39.875,23.03125 -5.6875,-9.8125 39.90625,-23.03125 z m 85.4375,0 39.90625,23.03125 -5.6875,9.8125 -39.875,-23.03125 5.65625,-9.8125 z m 153.90625,0 5.65625,9.8125 -39.875,23.03125 -5.6875,-9.8125 39.90625,-23.03125 z m 85.4375,0 39.90625,23.03125 -5.65625,9.8125 -39.90625,-23.03125 5.65625,-9.8125 z m 153.9062498,0 5.6874997,9.8125 -39.9062497,23.03125 -5.65625,-9.8125 39.875,-23.03125 z m 85.4687497,0 39.875,23.03125 -5.65625,9.8125 -39.90625,-23.03125 5.6875,-9.8125 z m 153.875,0 5.6875,9.8125 -39.90625,23.03125 -5.65625,-9.8125 39.875,-23.03125 z m 85.46875,0 39.875,23.03125 -5.65625,9.8125 -39.90625,-23.03125 5.6875,-9.8125 z m 153.90625,0 5.65625,9.8125 -39.875,23.03125 -5.6875,-9.8125 39.90625,-23.03125 z m 85.437499,0 39.90625,23.03125 -5.6875,9.8125 -39.875,-23.03125 5.65625,-9.8125 z m 153.90625,0 5.65625,9.8125 -39.875,23.03125 -5.6875,-9.8125 39.90625,-23.03125 z m 85.4375,0 39.90625,23.03125 -5.6875,9.8125 -39.875,-23.03125 5.65625,-9.8125 z m 153.90625,0 5.65625,9.8125 -39.875,23.03125 -5.65625,-9.8125 39.875,-23.03125 z m 85.46875,0 39.875,23.03125 -5.65625,9.8125 -39.90625,-23.03125 5.6875,-9.8125 z m 153.875,0 5.6875,9.8125 -39.90625,23.03125 -5.65625,-9.8125 39.875,-23.03125 z m 85.46875,0 39.875,23.03125 -5.65625,9.8125 -39.90625,-23.03125 5.6875,-9.8125 z m 153.875,0 5.6875,9.8125 -39.90625,23.03125 -5.65625,-9.8125 39.875,-23.03125 z m 85.46875,0 39.90625,23.03125 -5.6875,9.8125 -39.875,-23.03125 5.65625,-9.8125 z m -2322.2187485,97.03125 11.34375,0 0,46.0625 -11.34375,0 0,-46.0625 z m 239.34375,0 11.34375,0 0,46.0625 -11.34375,0 0,-46.0625 z m 239.34375,0 11.34375,0 0,46.0625 -11.34375,0 0,-46.0625 z m 239.34375,0 11.34375,0 0,46.0625 -11.34375,0 0,-46.0625 z m 239.3749995,0 11.3125,0 0,46.0625 -11.3125,0 0,-46.0625 z m 239.34375,0 11.34375,0 0,46.0625 -11.34375,0 0,-46.0625 z m 239.343749,0 11.34375,0 0,46.0625 -11.34375,0 0,-46.0625 z m 239.34375,0 11.34375,0 0,46.0625 -11.34375,0 0,-46.0625 z m 239.34375,0 11.34375,0 0,46.0625 -11.34375,0 0,-46.0625 z m 239.375,0 11.34375,0 0,46.0625 -11.34375,0 0,-46.0625 z m 239.34375,0 11.34375,0 0,46.0625 -11.34375,0 0,-46.0625 z m -2430.5624985,110.25 5.65625,9.8125 -39.875,23.03125 -5.6875,-9.8125 39.90625,-23.03125 z m 85.4375,0 39.90625,23.03125 -5.65625,9.8125 -39.90625,-23.03125 5.65625,-9.8125 z m 153.90625,0 5.6875,9.8125 -39.90625,23.03125 -5.65625,-9.8125 39.875,-23.03125 z m 85.46875,0 39.875,23.03125 -5.65625,9.8125 -39.90625,-23.03125 5.6875,-9.8125 z m 153.875,0 5.6875,9.8125 -39.90625,23.03125 -5.65625,-9.8125 39.875,-23.03125 z m 85.46875,0 39.875,23.03125 -5.65625,9.8125 -39.90625,-23.03125 5.6875,-9.8125 z m 153.90625,0 5.65625,9.8125 -39.90625,23.03125 -5.65625,-9.8125 39.90625,-23.03125 z m 85.4374998,0 39.9062497,23.03125 -5.6874997,9.8125 -39.875,-23.03125 5.65625,-9.8125 z m 153.9062497,0 5.65625,9.8125 -39.875,23.03125 -5.6875,-9.8125 39.90625,-23.03125 z m 85.4375,0 39.90625,23.03125 -5.6875,9.8125 -39.875,-23.03125 5.65625,-9.8125 z m 153.90625,0 5.65625,9.8125 -39.875,23.03125 -5.6875,-9.8125 39.90625,-23.03125 z m 85.46875,0 39.875,23.03125 -5.65625,9.8125 -39.90625,-23.03125 5.6875,-9.8125 z m 153.874999,0 5.6875,9.8125 -39.90625,23.03125 -5.65625,-9.8125 39.875,-23.03125 z m 85.46875,0 39.875,23.03125 -5.65625,9.8125 -39.90625,-23.03125 5.6875,-9.8125 z m 153.875,0 5.6875,9.8125 -39.90625,23.03125 -5.65625,-9.8125 39.875,-23.03125 z m 85.46875,0 39.875,23.03125 -5.65625,9.8125 -39.875,-23.03125 5.65625,-9.8125 z m 153.90625,0 5.65625,9.8125 -39.875,23.03125 -5.6875,-9.8125 39.90625,-23.03125 z m 85.4375,0 39.90625,23.03125 -5.6875,9.8125 -39.875,-23.03125 5.65625,-9.8125 z m 153.90625,0 5.65625,9.8125 -39.875,23.03125 -5.6875,-9.8125 39.90625,-23.03125 z m 85.4375,0 39.90625,23.03125 -5.6875,9.8125 -39.875,-23.03125 5.65625,-9.8125 z m 153.90625,0 5.6875,9.8125 -39.90625,23.03125 -5.65625,-9.8125 39.875,-23.03125 z m 85.46875,0 39.875,23.03125 -5.65625,9.8125 -39.90625,-23.03125 5.6875,-9.8125 z m -2561.59374845,97.03125 11.34375,0 0,46.0625 -11.34375,0 0,-46.0625 z m 239.34374995,0 11.34375,0 0,46.0625 -11.34375,0 0,-46.0625 z m 239.375,0 11.3125,0 0,46.0625 -11.3125,0 0,-46.0625 z m 239.34375,0 11.34375,0 0,46.0625 -11.34375,0 0,-46.0625 z m 239.3437495,0 11.34375,0 0,46.0625 -11.34375,0 0,-46.0625 z m 239.34375,0 11.34375,0 0,46.0625 -11.34375,0 0,-46.0625 z m 239.34375,0 11.34375,0 0,46.0625 -11.34375,0 0,-46.0625 z m 239.374999,0 11.3125,0 0,46.0625 -11.3125,0 0,-46.0625 z m 239.34375,0 11.34375,0 0,46.0625 -11.34375,0 0,-46.0625 z m 239.34375,0 11.34375,0 0,46.0625 -11.34375,0 0,-46.0625 z m 239.34375,0 11.34375,0 0,46.0625 -11.34375,0 0,-46.0625 z m 239.375,0 11.3125,0 0,46.0625 -11.3125,0 0,-46.0625 z m -2584.4687485,110.25 39.875,23.03124998 -5.65625,9.8125 -39.90625,-23.03125 5.6875,-9.81249998 z m 153.90625,0 5.65625,9.81249998 -39.90625,23.03125 -5.65625,-9.8125 39.90625,-23.03124998 z m 85.4375,0 39.90625,23.03124998 -5.6875,9.8125 -39.875,-23.03125 5.65625,-9.81249998 z m 153.90625,0 5.65625,9.81249998 -39.875,23.03125 -5.6875,-9.8125 39.90625,-23.03124998 z m 85.4375,0 39.90625,23.03124998 -5.6875,9.8125 -39.875,-23.03125 5.65625,-9.81249998 z m 153.90625,0 5.65625,9.81249998 -39.875,23.03125 -5.6875,-9.8125 39.90625,-23.03124998 z m 85.4375,0 39.90625,23.03124998 -5.65625,9.8125 -39.90625,-23.03125 5.65625,-9.81249998 z m 153.9062498,0 5.6874997,9.81249998 -39.9062497,23.03125 -5.65625,-9.8125 39.875,-23.03124998 z m 85.4687497,0 39.875,23.03124998 -5.65625,9.8125 -39.90625,-23.03125 5.6875,-9.81249998 z m 153.875,0 5.6875,9.81249998 -39.90625,23.03125 -5.65625,-9.8125 39.875,-23.03124998 z m 85.46875,0 39.875,23.03124998 -5.65625,9.8125 -39.90625,-23.03125 5.6875,-9.81249998 z m 153.90625,0 5.65625,9.81249998 -39.875,23.03125 -5.6875,-9.8125 39.90625,-23.03124998 z m 85.437499,0 39.90625,23.03124998 -5.6875,9.8125 -39.875,-23.03125 5.65625,-9.81249998 z m 153.90625,0 5.65625,9.81249998 -39.875,23.03125 -5.6875,-9.8125 39.90625,-23.03124998 z m 85.4375,0 39.90625,23.03124998 -5.6875,9.8125 -39.875,-23.03125 5.65625,-9.81249998 z m 153.90625,0 5.65625,9.81249998 -39.875,23.03125 -5.65625,-9.8125 39.875,-23.03124998 z m 85.46875,0 39.875,23.03124998 -5.65625,9.8125 -39.90625,-23.03125 5.6875,-9.81249998 z m 153.875,0 5.6875,9.81249998 -39.90625,23.03125 -5.65625,-9.8125 39.875,-23.03124998 z m 85.46875,0 39.875,23.03124998 -5.65625,9.8125 -39.90625,-23.03125 5.6875,-9.81249998 z m 153.875,0 5.6875,9.81249998 -39.90625,23.03125 -5.65625,-9.8125 39.875,-23.03124998 z m 85.46875,0 39.90625,23.03124998 -5.6875,9.8125 -39.875,-23.03125 5.65625,-9.81249998 z m 153.90625,0 5.65625,9.81249998 -39.875,23.03125 -5.6875,-9.8125 39.90625,-23.03124998 z m -2476.1249985,97.031249981 11.34375,0 0,46.062499999 -11.34375,0 0,-46.062499999 z m 239.34375,0 11.34375,0 0,46.062499999 -11.34375,0 0,-46.062499999 z m 239.34375,0 11.34375,0 0,46.062499999 -11.34375,0 0,-46.062499999 z m 239.34375,0 11.34375,0 0,46.062499999 -11.34375,0 0,-46.062499999 z m 239.3749995,0 11.3125,0 0,46.062499999 -11.3125,0 0,-46.062499999 z m 239.34375,0 11.34375,0 0,46.062499999 -11.34375,0 0,-46.062499999 z m 239.343749,0 11.34375,0 0,46.062499999 -11.34375,0 0,-46.062499999 z m 239.34375,0 11.34375,0 0,46.062499999 -11.34375,0 0,-46.062499999 z m 239.34375,0 11.34375,0 0,46.062499999 -11.34375,0 0,-46.062499999 z m 239.375,0 11.34375,0 0,46.062499999 -11.34375,0 0,-46.062499999 z m 239.34375,0 11.34375,0 0,46.062499999 -11.34375,0 0,-46.062499999 z M 236.1588775,12.39233558 c 3.913829,0 7.09375,3.179921 7.09375,7.09375 0,3.913829 -3.179921,7.09375 -7.09375,7.09375 -3.913829,0 -7.09375,-3.179921 -7.09375,-7.09375 0,-3.913829 3.179921,-7.09375 7.09375,-7.09375 z m 7.28125,94.31250002 39.90625,23.03125 -5.65625,9.8125 -39.90625,-23.03125 5.65625,-9.8125 z m 153.90625,0 5.6875,9.8125 -39.90625,23.03125 -5.65625,-9.8125 39.875,-23.03125 z m 85.46875,0 39.875,23.03125 -5.65625,9.8125 -39.90625,-23.03125 5.6875,-9.8125 z m 153.875,0 5.6875,9.8125 -39.90625,23.03125 -5.65625,-9.8125 39.875,-23.03125 z m 85.46875,0 39.875,23.03125 -5.65625,9.8125 -39.90625,-23.03125 5.6875,-9.8125 z m 153.90625,0 5.65625,9.8125 -39.90625,23.03125 -5.65625,-9.8125 39.90625,-23.03125 z m 85.4374998,0 39.9062497,23.03125 -5.6874997,9.8125 -39.875,-23.03125 5.65625,-9.8125 z m 153.9062497,0 5.65625,9.8125 -39.875,23.03125 -5.6875,-9.8125 39.90625,-23.03125 z m 85.4375,0 39.90625,23.03125 -5.6875,9.8125 -39.875,-23.03125 5.65625,-9.8125 z m 153.90625,0 5.65625,9.8125 -39.875,23.03125 -5.6875,-9.8125 39.90625,-23.03125 z m 85.46875,0 39.875,23.03125 -5.65625,9.8125 -39.90625,-23.03125 5.6875,-9.8125 z m 153.874999,0 5.6875,9.8125 -39.90625,23.03125 -5.65625,-9.8125 39.875,-23.03125 z m 85.46875,0 39.875,23.03125 -5.65625,9.8125 -39.90625,-23.03125 5.6875,-9.8125 z m 153.875,0 5.6875,9.8125 -39.90625,23.03125 -5.65625,-9.8125 39.875,-23.03125 z m 85.46875,0 39.875,23.03125 -5.65625,9.8125 -39.875,-23.03125 5.65625,-9.8125 z m 153.90625,0 5.65625,9.8125 -39.875,23.03125 -5.6875,-9.8125 39.90625,-23.03125 z m 85.4375,0 39.90625,23.03125 -5.6875,9.8125 -39.875,-23.03125 5.65625,-9.8125 z m 153.90625,0 5.65625,9.8125 -39.875,23.03125 -5.6875,-9.8125 39.90625,-23.03125 z m 85.4375,0 39.90625,23.03125 -5.6875,9.8125 -39.875,-23.03125 5.65625,-9.8125 z m 153.90625,0 5.65625,9.8125 -39.875,23.03125 -5.65625,-9.8125 39.875,-23.03125 z m -2236.7812485,97.0312498 11.34375,0 0,46.0625 -11.34375,0 0,-46.0625 z m 239.375,0 11.3125,0 0,46.0625 -11.3125,0 0,-46.0625 z m 239.34375,0 11.34375,0 0,46.0625 -11.34375,0 0,-46.0625 z m 239.3437495,0 11.34375,0 0,46.0625 -11.34375,0 0,-46.0625 z m 239.34375,0 11.34375,0 0,46.0625 -11.34375,0 0,-46.0625 z m 239.34375,0 11.34375,0 0,46.0625 -11.34375,0 0,-46.0625 z m 239.374999,0 11.34375,0 0,46.0625 -11.34375,0 0,-46.0625 z m 239.34375,0 11.34375,0 0,46.0625 -11.34375,0 0,-46.0625 z m 239.34375,0 11.34375,0 0,46.0625 -11.34375,0 0,-46.0625 z m 239.34375,0 11.34375,0 0,46.0625 -11.34375,0 0,-46.0625 z m -2105.7499985,110.25 39.90625,23.03125 -5.6875,9.8125 -39.875,-23.03125 5.65625,-9.8125 z m 153.90625,0 5.65625,9.8125 -39.875,23.03125 -5.6875,-9.8125 39.90625,-23.03125 z m 85.4375,0 39.90625,23.03125 -5.6875,9.8125 -39.875,-23.03125 5.65625,-9.8125 z m 153.90625,0 5.65625,9.8125 -39.875,23.03125 -5.6875,-9.8125 39.90625,-23.03125 z m 85.4375,0 39.90625,23.03125 -5.65625,9.8125 -39.90625,-23.03125 5.65625,-9.8125 z m 153.9062498,0 5.6874997,9.8125 -39.9062497,23.03125 -5.65625,-9.8125 39.875,-23.03125 z m 85.4687497,0 39.875,23.03125 -5.65625,9.8125 -39.90625,-23.03125 5.6875,-9.8125 z m 153.875,0 5.6875,9.8125 -39.90625,23.03125 -5.65625,-9.8125 39.875,-23.03125 z m 85.46875,0 39.875,23.03125 -5.65625,9.8125 -39.90625,-23.03125 5.6875,-9.8125 z m 153.90625,0 5.65625,9.8125 -39.875,23.03125 -5.6875,-9.8125 39.90625,-23.03125 z m 85.437499,0 39.90625,23.03125 -5.6875,9.8125 -39.875,-23.03125 5.65625,-9.8125 z m 153.90625,0 5.65625,9.8125 -39.875,23.03125 -5.6875,-9.8125 39.90625,-23.03125 z m 85.4375,0 39.90625,23.03125 -5.6875,9.8125 -39.875,-23.03125 5.65625,-9.8125 z m 153.90625,0 5.65625,9.8125 -39.875,23.03125 -5.65625,-9.8125 39.875,-23.03125 z m 85.46875,0 39.875,23.03125 -5.65625,9.8125 -39.90625,-23.03125 5.6875,-9.8125 z m 153.875,0 5.6875,9.8125 -39.90625,23.03125 -5.65625,-9.8125 39.875,-23.03125 z m 85.46875,0 39.875,23.03125 -5.65625,9.8125 -39.90625,-23.03125 5.6875,-9.8125 z m 153.875,0 5.6875,9.8125 -39.90625,23.03125 -5.65625,-9.8125 39.875,-23.03125 z m -1997.4062485,97.03125 11.34375,0 0,46.0625 -11.34375,0 0,-46.0625 z m 239.34375,0 11.34375,0 0,46.0625 -11.34375,0 0,-46.0625 z m 239.34375,0 11.34375,0 0,46.0625 -11.34375,0 0,-46.0625 z m 239.3749995,0 11.3125,0 0,46.0625 -11.3125,0 0,-46.0625 z m 239.34375,0 11.34375,0 0,46.0625 -11.34375,0 0,-46.0625 z m 239.343749,0 11.34375,0 0,46.0625 -11.34375,0 0,-46.0625 z m 239.34375,0 11.34375,0 0,46.0625 -11.34375,0 0,-46.0625 z m 239.34375,0 11.34375,0 0,46.0625 -11.34375,0 0,-46.0625 z m 239.375,0 11.34375,0 0,46.0625 -11.34375,0 0,-46.0625 z m -1866.4062485,110.25 39.875,23.03125 -5.65625,9.8125 -39.90625,-23.03125 5.6875,-9.8125 z m 153.875,0 5.6875,9.8125 -39.90625,23.03125 -5.65625,-9.8125 39.875,-23.03125 z m 85.46875,0 39.875,23.03125 -5.65625,9.8125 -39.90625,-23.03125 5.6875,-9.8125 z m 153.90625,0 5.65625,9.8125 -39.90625,23.03125 -5.65625,-9.8125 39.90625,-23.03125 z m 85.4374998,0 39.9062497,23.03125 -5.6874997,9.8125 -39.875,-23.03125 5.65625,-9.8125 z m 153.9062497,0 5.65625,9.8125 -39.875,23.03125 -5.6875,-9.8125 39.90625,-23.03125 z m 85.4375,0 39.90625,23.03125 -5.6875,9.8125 -39.875,-23.03125 5.65625,-9.8125 z m 153.90625,0 5.65625,9.8125 -39.875,23.03125 -5.6875,-9.8125 39.90625,-23.03125 z m 85.46875,0 39.875,23.03125 -5.65625,9.8125 -39.90625,-23.03125 5.6875,-9.8125 z m 153.874999,0 5.6875,9.8125 -39.90625,23.03125 -5.65625,-9.8125 39.875,-23.03125 z m 85.46875,0 39.875,23.03125 -5.65625,9.8125 -39.90625,-23.03125 5.6875,-9.8125 z m 153.875,0 5.6875,9.8125 -39.90625,23.03125 -5.65625,-9.8125 39.875,-23.03125 z m 85.46875,0 39.875,23.03125 -5.65625,9.8125 -39.875,-23.03125 5.65625,-9.8125 z m 153.90625,0 5.65625,9.8125 -39.875,23.03125 -5.6875,-9.8125 39.90625,-23.03125 z m 85.4375,0 39.90625,23.03125 -5.6875,9.8125 -39.875,-23.03125 5.65625,-9.8125 z m 153.90625,0 5.65625,9.8125 -39.875,23.03125 -5.6875,-9.8125 39.90625,-23.03125 z m -1758.0624985,97.03125 11.3125,0 0,46.0625 -11.3125,0 0,-46.0625 z m 239.34375,0 11.34375,0 0,46.0625 -11.34375,0 0,-46.0625 z m 239.3437495,0 11.34375,0 0,46.0625 -11.34375,0 0,-46.0625 z m 239.34375,0 11.34375,0 0,46.0625 -11.34375,0 0,-46.0625 z m 239.34375,0 11.34375,0 0,46.0625 -11.34375,0 0,-46.0625 z m 239.374999,0 11.34375,0 0,46.0625 -11.34375,0 0,-46.0625 z m 239.34375,0 11.34375,0 0,46.0625 -11.34375,0 0,-46.0625 z m 239.34375,0 11.34375,0 0,46.0625 -11.34375,0 0,-46.0625 z m -1627.0624985,110.25 39.90625,23.03125 -5.6875,9.8125 -39.875,-23.03125 5.65625,-9.8125 z m 153.90625,0 5.65625,9.8125 -39.875,23.03125 -5.6875,-9.8125 39.90625,-23.03125 z m 85.4375,0 39.90625,23.03125 -5.65625,9.8125 -39.90625,-23.03125 5.65625,-9.8125 z m 153.9062498,0 5.6874997,9.8125 -39.9062497,23.03125 -5.65625,-9.8125 39.875,-23.03125 z m 85.4687497,0 39.875,23.03125 -5.65625,9.8125 -39.90625,-23.03125 5.6875,-9.8125 z m 153.875,0 5.6875,9.8125 -39.90625,23.03125 -5.65625,-9.8125 39.875,-23.03125 z m 85.46875,0 39.875,23.03125 -5.65625,9.8125 -39.90625,-23.03125 5.6875,-9.8125 z m 153.90625,0 5.65625,9.8125 -39.875,23.03125 -5.6875,-9.8125 39.90625,-23.03125 z m 85.437499,0 39.90625,23.03125 -5.6875,9.8125 -39.875,-23.03125 5.65625,-9.8125 z m 153.90625,0 5.65625,9.8125 -39.875,23.03125 -5.6875,-9.8125 39.90625,-23.03125 z m 85.4375,0 39.90625,23.03125 -5.6875,9.8125 -39.875,-23.03125 5.65625,-9.8125 z m 153.90625,0 5.65625,9.8125 -39.875,23.03125 -5.65625,-9.8125 39.875,-23.03125 z m 85.46875,0 39.875,23.03125 -5.65625,9.8125 -39.90625,-23.03125 5.6875,-9.8125 z m 153.875,0 5.6875,9.8125 -39.90625,23.03125 -5.65625,-9.8125 39.875,-23.03125 z m -1376.9687485,28.40625 c 0.163784,-0.01663 0.331828,0 0.5,0 2.690757,0 4.875,2.184243 4.875,4.875 0,2.690757 -2.184243,4.84375 -4.875,4.84375 -2.690757,0 -4.875,-2.152993 -4.875,-4.84375 0,-2.522585 1.91824,-4.625502 4.375,-4.875 z m 205.5312495,0 c 0.163784,-0.01663 0.331828,0 0.5,0 2.690757,0 4.875,2.184243 4.875,4.875 0,2.690757 -2.184243,4.84375 -4.875,4.84375 -2.690757,0 -4.875,-2.152993 -4.875,-4.84375 0,-2.522585 1.91824,-4.625502 4.375,-4.875 z m -347.2812495,68.625 11.34375,0 0,46.0625 -11.34375,0 0,-46.0625 z m 239.34375,0 11.34375,0 0,46.0625 -11.34375,0 0,-46.0625 z m 239.3749995,0 11.3125,0 0,46.0625 -11.3125,0 0,-46.0625 z m 239.34375,0 11.34375,0 0,46.0625 -11.34375,0 0,-46.0625 z m 239.343749,0 11.34375,0 0,46.0625 -11.34375,0 0,-46.0625 z m 239.34375,0 11.34375,0 0,46.0625 -11.34375,0 0,-46.0625 z m 239.34375,0 11.34375,0 0,46.0625 -11.34375,0 0,-46.0625 z m -1394.9687485,15.96875 c 3.913829,0 7.0625,3.148671 7.0625,7.0625 0,3.913829 -3.148671,7.09375 -7.0625,7.09375 -3.913829,0 -7.09375,-3.179921 -7.09375,-7.09375 0,-3.913829 3.179921,-7.0625 7.09375,-7.0625 z m 100.625,89.03125 c 0.163784,-0.01663 0.331828,0 0.5,0 2.690757,0 4.875,2.152993 4.875,4.84375 0,2.690757 -2.184243,4.875 -4.875,4.875 -2.690757,0 -4.875,-2.184243 -4.875,-4.875 0,-2.522585 1.91824,-4.594252 4.375,-4.84375 z m 205.5312495,0 c 0.163784,-0.01663 0.331828,0 0.5,0 2.690757,0 4.875,2.152993 4.875,4.84375 0,2.690757 -2.184243,4.875 -4.875,4.875 -2.690757,0 -4.875,-2.184243 -4.875,-4.875 0,-2.522585 1.91824,-4.594252 4.375,-4.84375 z m -298.8749995,5.25 39.875,23.03125 -5.65625,9.84375 -39.90625,-23.03125 5.6875,-9.84375 z m 153.90625,0 5.65625,9.84375 -39.90625,23.03125 -5.65625,-9.84375 39.90625,-23.03125 z m 85.4374998,0 39.9062497,23.03125 -5.6874997,9.84375 -39.875,-23.03125 5.65625,-9.84375 z m 153.9062497,0 5.65625,9.84375 -39.875,23.03125 -5.6875,-9.84375 39.90625,-23.03125 z m 85.4375,0 39.90625,23.03125 -5.6875,9.84375 -39.875,-23.03125 5.65625,-9.84375 z m 153.90625,0 5.65625,9.84375 -39.875,23.03125 -5.6875,-9.84375 39.90625,-23.03125 z m 85.46875,0 39.875,23.03125 -5.65625,9.84375 -39.90625,-23.03125 5.6875,-9.84375 z m 153.874999,0 5.6875,9.84375 -39.90625,23.03125 -5.65625,-9.84375 39.875,-23.03125 z m 85.46875,0 39.875,23.03125 -5.65625,9.84375 -39.90625,-23.03125 5.6875,-9.84375 z m 153.875,0 5.6875,9.84375 -39.90625,23.03125 -5.65625,-9.84375 39.875,-23.03125 z m 85.46875,0 39.875,23.03125 -5.65625,9.84375 -39.875,-23.03125 5.65625,-9.84375 z m 153.90625,0 5.65625,9.84375 -39.875,23.03125 -5.6875,-9.84375 39.90625,-23.03125 z"
       id="rect23314-9-0"
       inkscape:connector-curvature="0" />
    <path
       style="fill:#000000;fill-opacity:0.1315789316;stroke:#000000;stroke-width:0.9992126226;stroke-linejoin:round;stroke-miterlimit:4;stroke-opacity:1;stroke-dasharray:none"
       d="m 2548.320719,-1309.286932 0,92.125 -39.8125,0 0,106.3125 56.1875,0 0,106.28125 -56.1875,0 0,106.3125001 1392.124999,0 0,-106.3125001 56.1875,0 0,-106.28125 -56.1875,0 0,-106.3125 16.375,0 0,-92.125 -198.90625,0 0,35.40625 4.96875,0 0,10.625 -4.96875,0 0,17.75 -13.46875,0 0,-17.75 -4.96875,0 0,-10.625 4.96875,0 0,-35.40625 -465.21875,0 0,35.40625 4.96875,0 0,10.625 -4.96875,0 0,17.75 -13.46875,0 0,-17.75 -4.96875,0 0,-10.625 4.96875,0 0,-35.40625 -465.249999,0 0,35.40625 4.96875,0 0,10.625 -4.96875,0 0,17.75 -13.46875,0 0,-17.75 -4.96875,0 0,-10.625 4.96875,0 0,-35.40625 -198.90625,0 z m 28.34375,38.96875 c 3.913829,0 7.09375,3.179921 7.09375,7.09375 0,3.913829 -3.179921,7.09375 -7.09375,7.09375 -3.913829,0 -7.09375,-3.179921 -7.09375,-7.09375 0,-3.913829 3.179921,-7.09375 7.09375,-7.09375 z m 1311.999999,0 c 3.913829,0 7.09375,3.179921 7.09375,7.09375 0,3.913829 -3.179921,7.09375 -7.09375,7.09375 -3.913829,0 -7.09375,-3.179921 -7.09375,-7.09375 0,-3.913829 3.179921,-7.09375 7.09375,-7.09375 z m -1205.562499,237.40625 35.4375,0 0,28.34375 -35.4375,0 0,-28.34375 z m 106.3125,0 35.4375,0 0,28.34375 -35.4375,0 0,-28.34375 z m 372.406249,0 35.4375,0 0,28.34375 -35.4375,0 0,-28.34375 z m 106.3125,0 35.4375,0 0,28.34375 -35.4375,0 0,-28.34375 z m 372.375,0 35.4375,0 0,28.34375 -35.4375,0 0,-28.34375 z m 106.3125,0 35.4375,0 0,28.34375 -35.4375,0 0,-28.34375 z m -992.874999,7.28125 c 3.815983,0 6.9375,3.090267 6.9375,6.90625 0,3.815983 -3.121517,6.90625 -6.9375,6.90625 -3.815983,0 -6.90625,-3.090267 -6.90625,-6.90625 0,-3.815983 3.090267,-6.90625 6.90625,-6.90625 z m 478.718749,0 c 3.815983,0 6.9375,3.090267 6.9375,6.90625 0,3.815983 -3.121517,6.90625 -6.9375,6.90625 -3.815983,0 -6.90625,-3.090267 -6.90625,-6.90625 0,-3.815983 3.090267,-6.90625 6.90625,-6.90625 z m 478.6875,0 c 3.815983,0 6.9375,3.090267 6.9375,6.90625 0,3.815983 -3.121517,6.90625 -6.9375,6.90625 -3.815983,0 -6.90625,-3.090267 -6.90625,-6.90625 0,-3.815983 3.090267,-6.90625 6.90625,-6.90625 z"
       id="rect28073"
       inkscape:connector-curvature="0" />
    <path
       style="fill:#000000;fill-opacity:0.1315789316;stroke:#000000;stroke-width:0.9992126226;stroke-linejoin:round;stroke-miterlimit:4;stroke-opacity:1;stroke-dasharray:none"
       d="m 4733.669761,-1307.856761 -92.125,0 0,-39.8125 -106.3125,0 0,56.1875 -106.28125,0 0,-56.1875 -106.3125,0 0,1392.12500028 106.3125,0 0,56.18750002 106.28125,0 0,-56.18750002 106.3125,0 0,16.375 92.125,0 0,-198.90624998 -35.40625,0 0,4.96875 -10.625,0 0,-4.96875 -17.75,0 0,-13.46875 17.75,0 0,-4.96875 10.625,0 0,4.96875 35.40625,0 0,-465.21875 -35.40625,0 0,4.96875 -10.625,0 0,-4.96875 -17.75,0 0,-13.46875 17.75,0 0,-4.96875 10.625,0 0,4.96875 35.40625,0 0,-465.2500003 -35.40625,0 0,4.96875 -10.625,0 0,-4.96875 -17.75,0 0,-13.46875 17.75,0 0,-4.96875 10.625,0 0,4.96875 35.40625,0 0,-198.90625 z m -38.96875,28.34375 c 0,3.913829 -3.179921,7.09375 -7.09375,7.09375 -3.913829,0 -7.09375,-3.179921 -7.09375,-7.09375 0,-3.913829 3.179921,-7.09375 7.09375,-7.09375 3.913829,0 7.09375,3.179921 7.09375,7.09375 z m 0,1312.00000028 c 0,3.913829 -3.179921,7.09375 -7.09375,7.09375 -3.913829,0 -7.09375,-3.179921 -7.09375,-7.09375 0,-3.913829 3.179921,-7.09375 7.09375,-7.09375 3.913829,0 7.09375,3.179921 7.09375,7.09375 z m -237.40625,-1205.56250028 0,35.4375 -28.34375,0 0,-35.4375 28.34375,0 z m 0,106.3125 0,35.4375 -28.34375,0 0,-35.4375 28.34375,0 z m 0,372.4062503 0,35.4375 -28.34375,0 0,-35.4375 28.34375,0 z m 0,106.3125 0,35.4375 -28.34375,0 0,-35.4375 28.34375,0 z m 0,372.375 0,35.4375 -28.34375,0 0,-35.4375 28.34375,0 z m 0,106.3125 0,35.43749998 -28.34375,0 0,-35.43749998 28.34375,0 z m -7.28125,-992.8750003 c 0,3.815983 -3.090267,6.9375 -6.90625,6.9375 -3.815983,0 -6.90625,-3.121517 -6.90625,-6.9375 0,-3.815983 3.090267,-6.90625 6.90625,-6.90625 3.815983,0 6.90625,3.090267 6.90625,6.90625 z m 0,478.7187503 c 0,3.815983 -3.090267,6.9375 -6.90625,6.9375 -3.815983,0 -6.90625,-3.121517 -6.90625,-6.9375 0,-3.815983 3.090267,-6.90625 6.90625,-6.90625 3.815983,0 6.90625,3.090267 6.90625,6.90625 z m 0,478.6875 c 0,3.815983 -3.090267,6.9375 -6.90625,6.9375 -3.815983,0 -6.90625,-3.121517 -6.90625,-6.9375 0,-3.815983 3.090267,-6.90625 6.90625,-6.90625 3.815983,0 6.90625,3.090267 6.90625,6.90625 z m -47.65625,-1087.4687503 c 0,14.676858 -11.885642,26.59375 -26.5625,26.59375 -14.676858,0 -26.5625,-11.916892 -26.5625,-26.59375 0,-14.676858 11.885642,-26.5625 26.5625,-26.5625 14.676858,0 26.5625,11.885642 26.5625,26.5625 z"
       id="rect28073-5"
       inkscape:connector-curvature="0" />
    <path
       style="fill:#000000;fill-opacity:0.1315789316;stroke:#000000;stroke-width:0.9992126226;stroke-linejoin:round;stroke-miterlimit:4;stroke-opacity:1;stroke-dasharray:none"
       d="m 2743.074095,-853.6758882 0,92.125 -39.8125,0 0,106.3125 56.1875,0 0,106.28125 -56.1875,0 0,106.312501 1392.124998,0 0,-106.312501 56.1875,0 0,-106.28125 -56.1875,0 0,-106.3125 16.375,0 0,-92.125 -198.90625,0 0,35.40625 4.96875,0 0,10.625 -4.96875,0 0,17.75 -13.46875,0 0,-17.75 -4.96875,0 0,-10.625 4.96875,0 0,-35.40625 -465.218749,0 0,35.40625 4.96875,0 0,10.625 -4.96875,0 0,17.75 -13.46875,0 0,-17.75 -4.96875,0 0,-10.625 4.96875,0 0,-35.40625 -465.249999,0 0,35.40625 4.96875,0 0,10.625 -4.96875,0 0,17.75 -13.46875,0 0,-17.75 -4.96875,0 0,-10.625 4.96875,0 0,-35.40625 -198.90625,0 z m 28.34375,38.96875 c 3.913829,0 7.09375,3.179921 7.09375,7.09375 0,3.913829 -3.179921,7.09375 -7.09375,7.09375 -3.913829,0 -7.09375,-3.179921 -7.09375,-7.09375 0,-3.913829 3.179921,-7.09375 7.09375,-7.09375 z m 1311.999998,0 c 3.913829,0 7.09375,3.179921 7.09375,7.09375 0,3.913829 -3.179921,7.09375 -7.09375,7.09375 -3.913829,0 -7.09375,-3.179921 -7.09375,-7.09375 0,-3.913829 3.179921,-7.09375 7.09375,-7.09375 z m -1205.562498,237.40625 35.4375,0 0,28.34375 -35.4375,0 0,-28.34375 z m 106.3125,0 35.4375,0 0,28.34375 -35.4375,0 0,-28.34375 z m 372.406249,0 35.4375,0 0,28.34375 -35.4375,0 0,-28.34375 z m 106.3125,0 35.4375,0 0,28.34375 -35.4375,0 0,-28.34375 z m 372.374999,0 35.4375,0 0,28.34375 -35.4375,0 0,-28.34375 z m 106.3125,0 35.4375,0 0,28.34375 -35.4375,0 0,-28.34375 z m -992.874998,7.28125 c 3.815983,0 6.9375,3.090267 6.9375,6.90625 0,3.815983 -3.121517,6.90625 -6.9375,6.90625 -3.815983,0 -6.90625,-3.090267 -6.90625,-6.90625 0,-3.815983 3.090267,-6.90625 6.90625,-6.90625 z m 478.718749,0 c 3.815983,0 6.9375,3.090267 6.9375,6.90625 0,3.815983 -3.121517,6.90625 -6.9375,6.90625 -3.815983,0 -6.90625,-3.090267 -6.90625,-6.90625 0,-3.815983 3.090267,-6.90625 6.90625,-6.90625 z m 478.687499,0 c 3.815983,0 6.9375,3.090267 6.9375,6.90625 0,3.815983 -3.121517,6.90625 -6.9375,6.90625 -3.815983,0 -6.90625,-3.090267 -6.90625,-6.90625 0,-3.815983 3.090267,-6.90625 6.90625,-6.90625 z"
       id="rect28073-51"
       inkscape:connector-curvature="0" />
    <path
       style="fill:#000000;fill-opacity:0.1315789316;stroke:#000000;stroke-width:0.9992126226;stroke-linejoin:round;stroke-miterlimit:4;stroke-opacity:1;stroke-dasharray:none"
       d="m 2868.33301,-384.9651078 0,92.125 -39.8125,0 0,106.3125 56.1875,0 0,106.28124991 -56.1875,0 0,106.31250105 1392.124999,0 0,-106.31250105 56.1875,0 0,-106.28124991 -56.1875,0 0,-106.3125 16.375,0 0,-92.125 -198.90625,0 0,35.40625 4.96875,0 0,10.625 -4.96875,0 0,17.75 -13.46875,0 0,-17.75 -4.96875,0 0,-10.625 4.96875,0 0,-35.40625 -465.21875,0 0,35.40625 4.96875,0 0,10.625 -4.96875,0 0,17.75 -13.46875,0 0,-17.75 -4.96875,0 0,-10.625 4.96875,0 0,-35.40625 -465.249999,0 0,35.40625 4.96875,0 0,10.625 -4.96875,0 0,17.75 -13.46875,0 0,-17.75 -4.96875,0 0,-10.625 4.96875,0 0,-35.40625 -198.90625,0 z m 28.34375,38.96875 c 3.913829,0 7.09375,3.179921 7.09375,7.09375 0,3.913829 -3.179921,7.09375 -7.09375,7.09375 -3.913829,0 -7.09375,-3.179921 -7.09375,-7.09375 0,-3.913829 3.179921,-7.09375 7.09375,-7.09375 z m 1311.999999,0 c 3.913829,0 7.09375,3.179921 7.09375,7.09375 0,3.913829 -3.179921,7.09375 -7.09375,7.09375 -3.913829,0 -7.09375,-3.179921 -7.09375,-7.09375 0,-3.913829 3.179921,-7.09375 7.09375,-7.09375 z m -1205.562499,237.4062499 35.4375,0 0,28.34375001 -35.4375,0 0,-28.34375001 z m 106.3125,0 35.4375,0 0,28.34375001 -35.4375,0 0,-28.34375001 z m 372.406249,0 35.4375,0 0,28.34375001 -35.4375,0 0,-28.34375001 z m 106.3125,0 35.4375,0 0,28.34375001 -35.4375,0 0,-28.34375001 z m 372.375,0 35.4375,0 0,28.34375001 -35.4375,0 0,-28.34375001 z m 106.3125,0 35.4375,0 0,28.34375001 -35.4375,0 0,-28.34375001 z m -992.874999,7.28125 c 3.815983,0 6.9375,3.09026701 6.9375,6.90625001 0,3.815983 -3.121517,6.90625 -6.9375,6.90625 -3.815983,0 -6.90625,-3.090267 -6.90625,-6.90625 0,-3.815983 3.090267,-6.90625001 6.90625,-6.90625001 z m 478.718749,0 c 3.815983,0 6.9375,3.09026701 6.9375,6.90625001 0,3.815983 -3.121517,6.90625 -6.9375,6.90625 -3.815983,0 -6.90625,-3.090267 -6.90625,-6.90625 0,-3.815983 3.090267,-6.90625001 6.90625,-6.90625001 z m 478.6875,0 c 3.815983,0 6.9375,3.09026701 6.9375,6.90625001 0,3.815983 -3.121517,6.90625 -6.9375,6.90625 -3.815983,0 -6.90625,-3.090267 -6.90625,-6.90625 0,-3.815983 3.090267,-6.90625001 6.90625,-6.90625001 z"
       id="rect28073-7"
       inkscape:connector-curvature="0" />
    <path
       style="fill:#000000;fill-opacity:0.1315789316;stroke:#000000;stroke-width:0.9992126226;stroke-linejoin:round;stroke-miterlimit:4;stroke-opacity:1;stroke-dasharray:none"
       d="m 2787.520808,71.62384186 0,92.12500004 -39.8125,0 0,106.3125 56.1875,0 0,106.28125 -56.1875,0 0,106.312501 1392.124998,0 0,-106.312501 56.1875,0 0,-106.28125 -56.1875,0 0,-106.3125 16.375,0 0,-92.12500004 -198.90625,0 0,35.40625004 4.96875,0 0,10.625 -4.96875,0 0,17.75 -13.46875,0 0,-17.75 -4.96875,0 0,-10.625 4.96875,0 0,-35.40625004 -465.218749,0 0,35.40625004 4.96875,0 0,10.625 -4.96875,0 0,17.75 -13.46875,0 0,-17.75 -4.96875,0 0,-10.625 4.96875,0 0,-35.40625004 -465.249999,0 0,35.40625004 4.96875,0 0,10.625 -4.96875,0 0,17.75 -13.46875,0 0,-17.75 -4.96875,0 0,-10.625 4.96875,0 0,-35.40625004 -198.90625,0 z m 28.34375,38.96875004 c 3.913829,0 7.09375,3.179921 7.09375,7.09375 0,3.913829 -3.179921,7.09375 -7.09375,7.09375 -3.913829,0 -7.09375,-3.179921 -7.09375,-7.09375 0,-3.913829 3.179921,-7.09375 7.09375,-7.09375 z m 1311.999998,0 c 3.913829,0 7.09375,3.179921 7.09375,7.09375 0,3.913829 -3.179921,7.09375 -7.09375,7.09375 -3.913829,0 -7.09375,-3.179921 -7.09375,-7.09375 0,-3.913829 3.179921,-7.09375 7.09375,-7.09375 z m -1205.562498,237.40625 35.4375,0 0,28.34375 -35.4375,0 0,-28.34375 z m 106.3125,0 35.4375,0 0,28.34375 -35.4375,0 0,-28.34375 z m 372.406249,0 35.4375,0 0,28.34375 -35.4375,0 0,-28.34375 z m 106.3125,0 35.4375,0 0,28.34375 -35.4375,0 0,-28.34375 z m 372.374999,0 35.4375,0 0,28.34375 -35.4375,0 0,-28.34375 z m 106.3125,0 35.4375,0 0,28.34375 -35.4375,0 0,-28.34375 z m -992.874998,7.28125 c 3.815983,0 6.9375,3.090267 6.9375,6.90625 0,3.815983 -3.121517,6.90625 -6.9375,6.90625 -3.815983,0 -6.90625,-3.090267 -6.90625,-6.90625 0,-3.815983 3.090267,-6.90625 6.90625,-6.90625 z m 478.718749,0 c 3.815983,0 6.9375,3.090267 6.9375,6.90625 0,3.815983 -3.121517,6.90625 -6.9375,6.90625 -3.815983,0 -6.90625,-3.090267 -6.90625,-6.90625 0,-3.815983 3.090267,-6.90625 6.90625,-6.90625 z m 478.687499,0 c 3.815983,0 6.9375,3.090267 6.9375,6.90625 0,3.815983 -3.121517,6.90625 -6.9375,6.90625 -3.815983,0 -6.90625,-3.090267 -6.90625,-6.90625 0,-3.815983 3.090267,-6.90625 6.90625,-6.90625 z"
       id="rect28073-1"
       inkscape:connector-curvature="0" />
    <path
       style="fill:#000000;fill-opacity:0.1315789316;stroke:#000000;stroke-width:0.9992126226;stroke-linejoin:round;stroke-miterlimit:4;stroke-opacity:1;stroke-dasharray:none"
       d="m 2528.921756,536.294012 0,92.125 -39.8125,0 0,106.3125 56.1875,0 0,106.2812497 -56.1875,0 0,106.312501 1392.124999,0 0,-106.312501 56.1875,0 0,-106.2812497 -56.1875,0 0,-106.3125 16.375,0 0,-92.125 -198.90625,0 0,35.40625 4.96875,0 0,10.625 -4.96875,0 0,17.75 -13.46875,0 0,-17.75 -4.96875,0 0,-10.625 4.96875,0 0,-35.40625 -465.21875,0 0,35.40625 4.96875,0 0,10.625 -4.96875,0 0,17.75 -13.46875,0 0,-17.75 -4.96875,0 0,-10.625 4.96875,0 0,-35.40625 -465.249999,0 0,35.40625 4.96875,0 0,10.625 -4.96875,0 0,17.75 -13.46875,0 0,-17.75 -4.96875,0 0,-10.625 4.96875,0 0,-35.40625 -198.90625,0 z m 28.34375,38.96875 c 3.913829,0 7.09375,3.179921 7.09375,7.09375 0,3.913829 -3.179921,7.09375 -7.09375,7.09375 -3.913829,0 -7.09375,-3.179921 -7.09375,-7.09375 0,-3.913829 3.179921,-7.09375 7.09375,-7.09375 z m 1311.999999,0 c 3.913829,0 7.09375,3.179921 7.09375,7.09375 0,3.913829 -3.179921,7.09375 -7.09375,7.09375 -3.913829,0 -7.09375,-3.179921 -7.09375,-7.09375 0,-3.913829 3.179921,-7.09375 7.09375,-7.09375 z m -1205.562499,237.40625 35.4375,0 0,28.3437497 -35.4375,0 0,-28.3437497 z m 106.3125,0 35.4375,0 0,28.3437497 -35.4375,0 0,-28.3437497 z m 372.406249,0 35.4375,0 0,28.3437497 -35.4375,0 0,-28.3437497 z m 106.3125,0 35.4375,0 0,28.3437497 -35.4375,0 0,-28.3437497 z m 372.375,0 35.4375,0 0,28.3437497 -35.4375,0 0,-28.3437497 z m 106.3125,0 35.4375,0 0,28.3437497 -35.4375,0 0,-28.3437497 z m -992.874999,7.2812497 c 3.815983,0 6.9375,3.090267 6.9375,6.90625 0,3.815983 -3.121517,6.90625 -6.9375,6.90625 -3.815983,0 -6.90625,-3.090267 -6.90625,-6.90625 0,-3.815983 3.090267,-6.90625 6.90625,-6.90625 z m 478.718749,0 c 3.815983,0 6.9375,3.090267 6.9375,6.90625 0,3.815983 -3.121517,6.90625 -6.9375,6.90625 -3.815983,0 -6.90625,-3.090267 -6.90625,-6.90625 0,-3.815983 3.090267,-6.90625 6.90625,-6.90625 z m 478.6875,0 c 3.815983,0 6.9375,3.090267 6.9375,6.90625 0,3.815983 -3.121517,6.90625 -6.9375,6.90625 -3.815983,0 -6.90625,-3.090267 -6.90625,-6.90625 0,-3.815983 3.090267,-6.90625 6.90625,-6.90625 z"
       id="rect28073-15"
       inkscape:connector-curvature="0" />
  </g>
</svg>
