<?xml version="1.0" encoding="UTF-8" standalone="no"?>
<!-- Created with Inkscape (http://www.inkscape.org/) -->

<svg
   xmlns:dc="http://purl.org/dc/elements/1.1/"
   xmlns:cc="http://creativecommons.org/ns#"
   xmlns:rdf="http://www.w3.org/1999/02/22-rdf-syntax-ns#"
   xmlns:svg="http://www.w3.org/2000/svg"
   xmlns="http://www.w3.org/2000/svg"
   xmlns:sodipodi="http://sodipodi.sourceforge.net/DTD/sodipodi-0.dtd"
   xmlns:inkscape="http://www.inkscape.org/namespaces/inkscape"
   width="3188.976318"
   height="3188.976318"
   id="svg5339"
   version="1.1"
   inkscape:version="0.48.5 r10040"
   sodipodi:docname="New document 21">
  <defs
     id="defs5341" />
  <sodipodi:namedview
     id="base"
     pagecolor="#ffffff"
     bordercolor="#666666"
     borderopacity="1.0"
     inkscape:pageopacity="0.0"
     inkscape:pageshadow="2"
     inkscape:zoom="0.1750000001"
     inkscape:cx="2499.323925"
     inkscape:cy="2224.892903"
     inkscape:document-units="mm"
     inkscape:current-layer="layer1"
     showgrid="false"
     units="mm"
     showguides="true"
     inkscape:guide-bbox="true"
     inkscape:window-width="1920"
     inkscape:window-height="1018"
     inkscape:window-x="-8"
     inkscape:window-y="-8"
     inkscape:window-maximized="1" />
  <metadata
     id="metadata5344">
    <rdf:RDF>
      <cc:Work
         rdf:about="">
        <dc:format>image/svg+xml</dc:format>
        <dc:type
           rdf:resource="http://purl.org/dc/dcmitype/StillImage" />
        <dc:title></dc:title>
      </cc:Work>
    </rdf:RDF>
  </metadata>
  <g
     inkscape:label="Layer 1"
     inkscape:groupmode="layer"
     id="layer1"
     transform="translate(0,2136.614121)">
    <path
       style="font-size:medium;font-style:normal;font-variant:normal;font-weight:normal;font-stretch:normal;text-indent:0;text-align:start;text-decoration:none;line-height:normal;letter-spacing:normal;word-spacing:normal;text-transform:none;direction:ltr;block-progression:tb;writing-mode:lr-tb;text-anchor:start;baseline-shift:baseline;color:#000000;fill:#000000;fill-opacity:0.1333333333;stroke:#000000;stroke-width:0.9992126226;stroke-miterlimit:4;stroke-opacity:1;stroke-dasharray:none;marker:none;visibility:visible;display:inline;overflow:visible;enable-background:accumulate;font-family:Sans;-inkscape-font-specification:Sans"
       d="m 887.1756593,-1776.079086 a 8.859153611,8.859153611 0 0 0 -7.65625,4.4375 l -707.3125,1225.0937488 a 8.859153611,8.859153611 0 0 0 0,8.84375 l 707.3125,1225.09375 a 8.859153611,8.859153611 0 0 0 7.65625,4.4375 l 1414.6249997,0 a 8.859153611,8.859153611 0 0 0 7.65625,-4.4375 l 707.3125,-1225.09375 a 8.859153611,8.859153611 0 0 0 0,-8.84375 l -707.3125,-1225.0937488 a 8.859153611,8.859153611 0 0 0 -7.65625,-4.4375 l -1414.6249997,0 z m 228.6249997,27.5625 c 3.815983,0 6.90625,3.090267 6.90625,6.90625 0,3.815984 -3.090267,6.9375 -6.90625,6.9375 -3.815983,0 -6.90625,-3.121516 -6.90625,-6.9375 0,-3.815983 3.090267,-6.90625 6.90625,-6.90625 z m 478.6875,0 c 3.815983,0 6.90625,3.121517 6.90625,6.9375 0,3.815984 -3.090267,6.90625 -6.90625,6.90625 -3.815983,0 -6.90625,-3.090266 -6.90625,-6.90625 0,-3.815983 3.090267,-6.9375 6.90625,-6.9375 z m 478.71875,0 c 3.815983,0 6.90625,3.121517 6.90625,6.9375 0,3.815984 -3.090267,6.90625 -6.90625,6.90625 -3.815983,0 -6.90625,-3.090266 -6.90625,-6.90625 0,-3.815983 3.090267,-6.9375 6.90625,-6.9375 z m -1277.9374997,185.15625 c 1.113777,0.02893 2.217269,0.341253 3.25,0.9375 3.304739,1.907992 4.439242,6.132762 2.53125,9.4375 -1.907991,3.304739 -6.13276,4.439243 -9.4375,2.53125 -3.304738,-1.907991 -4.439241,-6.132761 -2.53125,-9.4375 1.311744,-2.272007 3.737191,-3.532389 6.1875,-3.46875 z m 1598.4374997,0 c 2.450309,-0.06364 4.875756,1.196742 6.1875,3.46875 1.907992,3.304738 0.773488,7.529509 -2.53125,9.4375 -3.304739,1.907992 -7.529508,0.773488 -9.4375,-2.53125 -1.907991,-3.304738 -0.773489,-7.529508 2.53125,-9.4375 1.032731,-0.596247 2.136223,-0.908573 3.25,-0.9375 z m -1838.4687497,414.593749 c 1.327517,-0.09382 2.698223,0.222003 3.9375,0.9375 3.304739,1.907992 4.439242,6.132762 2.53125,9.4375 -1.907991,3.304739 -6.132761,4.407992 -9.4375,2.5 -3.304739,-1.907991 -4.439241,-6.132761 -2.53125,-9.4375 1.192495,-2.065461 3.287471,-3.281138 5.5,-3.4375 z m 2077.8437497,0 c 2.450309,-0.06364 4.844506,1.165492 6.15625,3.4375 1.907992,3.304738 0.773488,7.529509 -2.53125,9.4375 -3.304739,1.907992 -7.529508,0.804738 -9.4375,-2.5 -1.907991,-3.304738 -0.773489,-7.529508 2.53125,-9.4375 1.032731,-0.596247 2.167473,-0.908573 3.28125,-0.9375 z M 315.8944093,-734.2040872 c 1.327517,-0.09382 2.698223,0.190753 3.9375,0.90625 3.304739,1.907992 4.439242,6.132762 2.53125,9.4375 -1.907991,3.304738 -6.132761,4.439242 -9.4375,2.53125 -3.304738,-1.907993 -4.439242,-6.132762 -2.53125,-9.4375 1.192494,-2.065462 3.287471,-3.281138 5.5,-3.4375 z m 2556.5312497,0 c 2.450309,-0.06364 4.844506,1.165492 6.15625,3.4375 1.907992,3.304738 0.773488,7.529508 -2.53125,9.4375 -3.304739,1.907992 -7.529508,0.773488 -9.4375,-2.53125 -1.907992,-3.304738 -0.773489,-7.529508 2.53125,-9.4375 1.032731,-0.596247 2.167473,-0.877323 3.28125,-0.90625 z m -2556.2499997,370.34375 c 2.450309,-0.06364 4.875756,1.196742 6.1875,3.46875 1.907991,3.304738 0.773489,7.529508 -2.53125,9.4375 -3.304738,1.907991 -7.529508,0.773488 -9.4375,-2.53125 -1.907991,-3.304738 -0.773488,-7.529509 2.53125,-9.4375 1.032731,-0.596248 2.136223,-0.908573 3.25,-0.9375 z m 2556.6249997,0 c 1.113777,0.02893 2.217269,0.341252 3.25,0.9375 3.304738,1.907991 4.439242,6.132762 2.53125,9.4375 -1.907991,3.304738 -6.132762,4.439241 -9.4375,2.53125 -3.304739,-1.907992 -4.439241,-6.132762 -2.53125,-9.4375 1.311744,-2.272007 3.737191,-3.532389 6.1875,-3.46875 z M 555.5194093,50.70216283 c 2.450309,-0.06364 4.875756,1.165492 6.1875,3.4375 1.907991,3.304738 0.773489,7.529508 -2.53125,9.4375 -3.304738,1.907991 -7.529509,0.804738 -9.4375,-2.5 -1.907992,-3.304738 -0.773488,-7.560759 2.53125,-9.46875 1.032731,-0.596248 2.136223,-0.877323 3.25,-0.90625 z m 2077.2499997,0 c 1.327517,-0.09382 2.698223,0.190753 3.9375,0.90625 3.304739,1.907992 4.439242,6.164012 2.53125,9.46875 -1.907991,3.304739 -6.132762,4.407991 -9.4375,2.5 -3.304739,-1.907992 -4.439242,-6.132762 -2.53125,-9.4375 1.192495,-2.065462 3.287471,-3.281138 5.5,-3.4375 z M 794.8944093,465.2959128 c 2.450309,-0.06364 4.844506,1.165492 6.15625,3.4375 1.907992,3.304738 0.773489,7.529508 -2.53125,9.4375 -3.304738,1.907991 -7.529509,0.773488 -9.4375,-2.53125 -1.907992,-3.304738 -0.773488,-7.529509 2.53125,-9.4375 1.032731,-0.596248 2.167473,-0.877323 3.28125,-0.90625 z m 1598.5312497,0 c 1.327517,-0.09382 2.698223,0.190753 3.9375,0.90625 3.304739,1.907992 4.439242,6.132762 2.53125,9.4375 -1.907991,3.304738 -6.132762,4.439241 -9.4375,2.53125 -3.304739,-1.907992 -4.439241,-6.132762 -2.53125,-9.4375 1.192495,-2.065461 3.287471,-3.281138 5.5,-3.4375 z m -1277.625,185.125 c 3.815983,0 6.90625,3.090266 6.90625,6.90625 -10e-7,3.815983 -3.090267,6.9375 -6.90625,6.9375 -3.815983,-10e-7 -6.906251,-3.121517 -6.90625,-6.9375 0,-3.815984 3.090266,-6.90625 6.90625,-6.90625 z m 478.6875,0 c 3.815983,0 6.90625,3.090266 6.90625,6.90625 0,3.815982 -3.090267,6.9375 -6.90625,6.9375 -3.815983,10e-7 -6.906249,-3.121517 -6.90625,-6.9375 0,-3.815984 3.090267,-6.906251 6.90625,-6.90625 z m 478.71875,0 c 3.815983,0 6.90625,3.090266 6.90625,6.90625 0,3.815984 -3.090267,6.937499 -6.90625,6.9375 -3.815983,-10e-7 -6.90625,-3.121517 -6.90625,-6.9375 0,-3.815984 3.090267,-6.90625 6.90625,-6.90625 z"
       id="path28834"
       inkscape:connector-curvature="0" />
    <path
       style="fill:#000000;fill-opacity:0.1764705882;stroke:#000000;stroke-width:0.992125988;stroke-miterlimit:4;stroke-opacity:1;stroke-dasharray:none"
       d="m 2787.696823,-1036.189593 c 0.01704,6.052009 4.944065,10.96875 11,10.96875 l 176.4375,0 c 6.055935,0 10.98296,-4.916741 11,-10.96875 l 0,-279.25 c -0.01704,-6.052009 -4.944065,-10.96875 -11,-10.96875 l -176.4375,0 c -6.055935,0 -10.98296,4.916741 -11,10.96875 l 0,85.0625 21.40625,0 0,180 -21.40625,0 0,14.1875 z m 7.53125,-1.4375 c 0,-2.690757 2.184243,-4.875 4.875,-4.875 2.690757,0 4.875,2.184243 4.875,4.875 0,2.690757 -2.184243,4.875 -4.875,4.875 -2.690757,0 -4.875,-2.184243 -4.875,-4.875 z m 0,-205.5 c 0,-2.690757 2.184243,-4.875 4.875,-4.875 2.690757,0 4.875,2.184243 4.875,4.875 0,2.690757 -2.184243,4.875 -4.875,4.875 -2.690757,0 -4.875,-2.184243 -4.875,-4.875 z m 173.625,205.5 c 0,-2.690757 2.184243,-4.875 4.875,-4.875 2.690757,0 4.875,2.184243 4.875,4.875 0,2.690757 -2.184243,4.875 -4.875,4.875 -2.690757,0 -4.875,-2.184243 -4.875,-4.875 z m 0,-205.5 c 0,-2.690757 2.184243,-4.875 4.875,-4.875 2.690757,0 4.875,2.184243 4.875,4.875 0,2.690757 -2.184243,4.875 -4.875,4.875 -2.690757,0 -4.875,-2.184243 -4.875,-4.875 z"
       id="rect3780"
       inkscape:connector-curvature="0" />
    <path
       inkscape:connector-curvature="0"
       style="fill:#000000;fill-opacity:0.1764705882;stroke:#000000;stroke-width:0.992125988;stroke-miterlimit:4;stroke-opacity:1;stroke-dasharray:none"
       d="m 2570.037592,-1468.157169 c 0.01704,6.052009 4.944065,10.96875 11,10.96875 l 176.4375,0 c 6.055935,0 10.98296,-4.916741 11,-10.96875 l 0,-279.25 c -0.01704,-6.052009 -4.944065,-10.96875 -11,-10.96875 l -176.4375,0 c -6.055935,0 -10.98296,4.916741 -11,10.96875 l 0,279.25 z m 7.53125,-1.4375 c 0,-2.690757 2.184243,-4.875 4.875,-4.875 2.690757,0 4.875,2.184243 4.875,4.875 0,2.690757 -2.184243,4.875 -4.875,4.875 -2.690757,0 -4.875,-2.184243 -4.875,-4.875 z m 0,-205.5 c 0,-2.690757 2.184243,-4.875 4.875,-4.875 2.690757,0 4.875,2.184243 4.875,4.875 0,2.690757 -2.184243,4.875 -4.875,4.875 -2.690757,0 -4.875,-2.184243 -4.875,-4.875 z m 173.625,205.5 c 0,-2.690757 2.184243,-4.875 4.875,-4.875 2.690757,0 4.875,2.184243 4.875,4.875 0,2.690757 -2.184243,4.875 -4.875,4.875 -2.690757,0 -4.875,-2.184243 -4.875,-4.875 z m 0,-205.5 c 0,-2.690757 2.184243,-4.875 4.875,-4.875 2.690757,0 4.875,2.184243 4.875,4.875 0,2.690757 -2.184243,4.875 -4.875,4.875 -2.690757,0 -4.875,-2.184243 -4.875,-4.875 z"
       id="rect3780-7" />
    <path
       style="fill:#000000;fill-opacity:0.1764705882;stroke:#000000;stroke-width:0.992125988;stroke-miterlimit:4;stroke-opacity:1;stroke-dasharray:none"
       d="m 226.2670151,-1082.636202 c 0.01704,6.052009 4.944065,10.968751 11,10.968751 l 176.4375,0 c 6.055935,0 10.98296,-4.916742 11,-10.968751 l 0,-279.25 c -0.01704,-6.052009 -4.944065,-10.96875 -11,-10.96875 l -176.4375,0 c -6.055935,0 -10.98296,4.916741 -11,10.96875 l 0,85.0625 21.40625,0 0,180 -21.40625,0 0,14.1875 z m 7.53125,-1.4375 c 0,-2.690757 2.184243,-4.875 4.875,-4.875 2.690757,0 4.875,2.184243 4.875,4.875 0,2.690757 -2.184243,4.875 -4.875,4.875 -2.690757,0 -4.875,-2.184243 -4.875,-4.875 z m 0,-205.5 c 0,-2.690757 2.184243,-4.875 4.875,-4.875 2.690757,0 4.875,2.184243 4.875,4.875 0,2.690757 -2.184243,4.875 -4.875,4.875 -2.690757,0 -4.875,-2.184243 -4.875,-4.875 z m 173.625,205.5 c 0,-2.690757 2.184243,-4.875 4.875,-4.875 2.690757,0 4.875,2.184243 4.875,4.875 0,2.690757 -2.184243,4.875 -4.875,4.875 -2.690757,0 -4.875,-2.184243 -4.875,-4.875 z m 0,-205.5 c 0,-2.690757 2.184243,-4.875 4.875,-4.875 2.690757,0 4.875,2.184243 4.875,4.875 0,2.690757 -2.184243,4.875 -4.875,4.875 -2.690757,0 -4.875,-2.184243 -4.875,-4.875 z"
       id="rect3780-2"
       inkscape:connector-curvature="0" />
    <path
       inkscape:connector-curvature="0"
       style="fill:#000000;fill-opacity:0.1764705882;stroke:#000000;stroke-width:0.992125988;stroke-miterlimit:4;stroke-opacity:1;stroke-dasharray:none"
       d="m 432.4453433,-1453.935153 c 0.01704,6.052009 4.944065,10.96875 11,10.96875 l 176.4375,0 c 6.055935,0 10.98296,-4.916741 11,-10.96875 l 0,-279.25 c -0.01704,-6.052009 -4.944065,-10.96875 -11,-10.96875 l -176.4375,0 c -6.055935,0 -10.98296,4.916741 -11,10.96875 l 0,279.25 z m 7.53125,-1.4375 c 0,-2.690757 2.184243,-4.875 4.875,-4.875 2.690757,0 4.875,2.184243 4.875,4.875 0,2.690757 -2.184243,4.875 -4.875,4.875 -2.690757,0 -4.875,-2.184243 -4.875,-4.875 z m 0,-205.5 c 0,-2.690757 2.184243,-4.875 4.875,-4.875 2.690757,0 4.875,2.184243 4.875,4.875 0,2.690757 -2.184243,4.875 -4.875,4.875 -2.690757,0 -4.875,-2.184243 -4.875,-4.875 z m 173.625,205.5 c 0,-2.690757 2.184243,-4.875 4.875,-4.875 2.690757,0 4.875,2.184243 4.875,4.875 0,2.690757 -2.184243,4.875 -4.875,4.875 -2.690757,0 -4.875,-2.184243 -4.875,-4.875 z m 0,-205.5 c 0,-2.690757 2.184243,-4.875 4.875,-4.875 2.690757,0 4.875,2.184243 4.875,4.875 0,2.690757 -2.184243,4.875 -4.875,4.875 -2.690757,0 -4.875,-2.184243 -4.875,-4.875 z"
       id="rect3780-7-7" />
    <path
       style="fill:#000000;fill-opacity:0.1764705882;stroke:#000000;stroke-width:0.992125988;stroke-miterlimit:4;stroke-opacity:1;stroke-dasharray:none"
       d="m 2784.292476,215.6401275 c 0.01704,6.052009 4.944065,10.96875 11,10.96875 l 176.4375,0 c 6.055935,0 10.98296,-4.916741 11,-10.96875 l 0,-279.25000001 c -0.01704,-6.052009 -4.944065,-10.96875 -11,-10.96875 l -176.4375,0 c -6.055935,0 -10.98296,4.916741 -11,10.96875 l 0,85.0625 21.40625,0 0,180.00000001 -21.40625,0 0,14.1875 z m 7.53125,-1.4375 c 0,-2.690757 2.184243,-4.875 4.875,-4.875 2.690757,0 4.875,2.184243 4.875,4.875 0,2.690757 -2.184243,4.875 -4.875,4.875 -2.690757,0 -4.875,-2.184243 -4.875,-4.875 z m 0,-205.50000001 c 0,-2.690757 2.184243,-4.875 4.875,-4.875 2.690757,0 4.875,2.184243 4.875,4.875 0,2.690757 -2.184243,4.875 -4.875,4.875 -2.690757,0 -4.875,-2.184243 -4.875,-4.875 z m 173.625,205.50000001 c 0,-2.690757 2.184243,-4.875 4.875,-4.875 2.690757,0 4.875,2.184243 4.875,4.875 0,2.690757 -2.184243,4.875 -4.875,4.875 -2.690757,0 -4.875,-2.184243 -4.875,-4.875 z m 0,-205.50000001 c 0,-2.690757 2.184243,-4.875 4.875,-4.875 2.690757,0 4.875,2.184243 4.875,4.875 0,2.690757 -2.184243,4.875 -4.875,4.875 -2.690757,0 -4.875,-2.184243 -4.875,-4.875 z"
       id="rect3780-6"
       inkscape:connector-curvature="0" />
    <path
       inkscape:connector-curvature="0"
       style="fill:#000000;fill-opacity:0.1764705882;stroke:#000000;stroke-width:0.992125988;stroke-miterlimit:4;stroke-opacity:1;stroke-dasharray:none"
       d="m 2549.787749,668.2586145 c 0.01704,6.052009 4.944065,10.96875 11,10.96875 l 176.4375,0 c 6.055935,0 10.98296,-4.916741 11,-10.96875 l 0,-279.25 c -0.01704,-6.052009 -4.944065,-10.96875 -11,-10.96875 l -176.4375,0 c -6.055935,0 -10.98296,4.916741 -11,10.96875 l 0,279.25 z m 7.53125,-1.4375 c 0,-2.690757 2.184243,-4.875 4.875,-4.875 2.690757,0 4.875,2.184243 4.875,4.875 0,2.690757 -2.184243,4.875 -4.875,4.875 -2.690757,0 -4.875,-2.184243 -4.875,-4.875 z m 0,-205.5 c 0,-2.690757 2.184243,-4.875 4.875,-4.875 2.690757,0 4.875,2.184243 4.875,4.875 0,2.690757 -2.184243,4.875 -4.875,4.875 -2.690757,0 -4.875,-2.184243 -4.875,-4.875 z m 173.625,205.5 c 0,-2.690757 2.184243,-4.875 4.875,-4.875 2.690757,0 4.875,2.184243 4.875,4.875 0,2.690757 -2.184243,4.875 -4.875,4.875 -2.690757,0 -4.875,-2.184243 -4.875,-4.875 z m 0,-205.5 c 0,-2.690757 2.184243,-4.875 4.875,-4.875 2.690757,0 4.875,2.184243 4.875,4.875 0,2.690757 -2.184243,4.875 -4.875,4.875 -2.690757,0 -4.875,-2.184243 -4.875,-4.875 z"
       id="rect3780-7-1" />
    <path
       style="fill:#000000;fill-opacity:0.1764705882;stroke:#000000;stroke-width:0.992125988;stroke-miterlimit:4;stroke-opacity:1;stroke-dasharray:none"
       d="m 438.9019381,662.4249132 c 0.01704,6.052009 4.944065,10.96875 11,10.96875 l 176.4375,0 c 6.055935,0 10.98296,-4.916741 11,-10.96875 l 0,-279.25 c -0.01704,-6.052009 -4.944065,-10.96875 -11,-10.96875 l -176.4375,0 c -6.055935,0 -10.98296,4.916741 -11,10.96875 l 0,85.0625 21.40625,0 0,180 -21.40625,0 0,14.1875 z m 7.53125,-1.4375 c 0,-2.690757 2.184243,-4.875 4.875,-4.875 2.690757,0 4.875,2.184243 4.875,4.875 0,2.690757 -2.184243,4.875 -4.875,4.875 -2.690757,0 -4.875,-2.184243 -4.875,-4.875 z m 0,-205.5 c 0,-2.690757 2.184243,-4.875 4.875,-4.875 2.690757,0 4.875,2.184243 4.875,4.875 0,2.690757 -2.184243,4.875 -4.875,4.875 -2.690757,0 -4.875,-2.184243 -4.875,-4.875 z m 173.625,205.5 c 0,-2.690757 2.184243,-4.875 4.875,-4.875 2.690757,0 4.875,2.184243 4.875,4.875 0,2.690757 -2.184243,4.875 -4.875,4.875 -2.690757,0 -4.875,-2.184243 -4.875,-4.875 z m 0,-205.5 c 0,-2.690757 2.184243,-4.875 4.875,-4.875 2.690757,0 4.875,2.184243 4.875,4.875 0,2.690757 -2.184243,4.875 -4.875,4.875 -2.690757,0 -4.875,-2.184243 -4.875,-4.875 z"
       id="rect3780-4"
       inkscape:connector-curvature="0" />
    <path
       inkscape:connector-curvature="0"
       style="fill:#000000;fill-opacity:0.1764705882;stroke:#000000;stroke-width:0.992125988;stroke-miterlimit:4;stroke-opacity:1;stroke-dasharray:none"
       d="m 214.4987368,278.6370935 c 0.01704,6.052009 4.944065,10.96875 11,10.96875 l 176.4375,0 c 6.055935,0 10.98296,-4.916741 11,-10.96875 l 0,-279.2499998629 c -0.01704,-6.0520090001 -4.944065,-10.9687499971 -11,-10.9687499971 l -176.4375,0 c -6.055935,0 -10.98296,4.916740997 -11,10.9687499971 l 0,279.2499998629 z m 7.53125,-1.4375 c 0,-2.690757 2.184243,-4.875 4.875,-4.875 2.690757,0 4.875,2.184243 4.875,4.875 0,2.690757 -2.184243,4.875 -4.875,4.875 -2.690757,0 -4.875,-2.184243 -4.875,-4.875 z m 0,-205.49999986 c 0,-2.690757 2.184243,-4.875 4.875,-4.875 2.690757,0 4.875,2.184243 4.875,4.875 0,2.690757 -2.184243,4.875 -4.875,4.875 -2.690757,0 -4.875,-2.184243 -4.875,-4.875 z m 173.625,205.49999986 c 0,-2.690757 2.184243,-4.875 4.875,-4.875 2.690757,0 4.875,2.184243 4.875,4.875 0,2.690757 -2.184243,4.875 -4.875,4.875 -2.690757,0 -4.875,-2.184243 -4.875,-4.875 z m 0,-205.49999986 c 0,-2.690757 2.184243,-4.875 4.875,-4.875 2.690757,0 4.875,2.184243 4.875,4.875 0,2.690757 -2.184243,4.875 -4.875,4.875 -2.690757,0 -4.875,-2.184243 -4.875,-4.875 z"
       id="rect3780-7-2" />
  </g>
</svg>
