<?xml version="1.0" encoding="UTF-8" standalone="no"?>
<!-- Created with Inkscape (http://www.inkscape.org/) -->

<svg
   xmlns:dc="http://purl.org/dc/elements/1.1/"
   xmlns:cc="http://creativecommons.org/ns#"
   xmlns:rdf="http://www.w3.org/1999/02/22-rdf-syntax-ns#"
   xmlns:svg="http://www.w3.org/2000/svg"
   xmlns="http://www.w3.org/2000/svg"
   xmlns:sodipodi="http://sodipodi.sourceforge.net/DTD/sodipodi-0.dtd"
   xmlns:inkscape="http://www.inkscape.org/namespaces/inkscape"
   width="3242.125977"
   height="3011.811035"
   id="svg4925"
   version="1.1"
   inkscape:version="0.48.5 r10040"
   sodipodi:docname="New document 17">
  <defs
     id="defs4927" />
  <sodipodi:namedview
     id="base"
     pagecolor="#ffffff"
     bordercolor="#666666"
     borderopacity="1.0"
     inkscape:pageopacity="0.0"
     inkscape:pageshadow="2"
     inkscape:zoom="0.1750000001"
     inkscape:cx="1648.839637"
     inkscape:cy="1256.29539"
     inkscape:document-units="mm"
     inkscape:current-layer="layer1"
     showgrid="false"
     units="mm"
     inkscape:window-width="1920"
     inkscape:window-height="1018"
     inkscape:window-x="-8"
     inkscape:window-y="-8"
     inkscape:window-maximized="1" />
  <metadata
     id="metadata4930">
    <rdf:RDF>
      <cc:Work
         rdf:about="">
        <dc:format>image/svg+xml</dc:format>
        <dc:type
           rdf:resource="http://purl.org/dc/dcmitype/StillImage" />
        <dc:title></dc:title>
      </cc:Work>
    </rdf:RDF>
  </metadata>
  <g
     inkscape:label="Layer 1"
     inkscape:groupmode="layer"
     id="layer1"
     transform="translate(0,1959.448771)">
    <path
       inkscape:tile-y0="295.057462"
       inkscape:tile-x0="277.9379351"
       sodipodi:nodetypes="ccccccccccccc"
       inkscape:connector-curvature="0"
       id="use4948"
       d="m 178.84763,-1788.533232 0,92.125 21.406251,0 0,184.25 36.25,0 0,28.375 46.0624996,0 0,-28.375 36.21875,0 0,-184.25 21.4375,0 0,-92.125 z"
       style="fill:#000000;fill-opacity:0.1315789316;stroke:#000000;stroke-width:0.9992126226;stroke-linejoin:round;stroke-miterlimit:4;stroke-opacity:1;stroke-dasharray:none" />
    <path
       inkscape:tile-y0="295.057462"
       inkscape:tile-x0="277.9379351"
       sodipodi:nodetypes="ccccccccccccc"
       inkscape:connector-curvature="0"
       id="use4950"
       d="m 178.84763,-1452.783919 0,92.125 21.406251,0 0,184.25 36.25,0 0,28.375 46.0624996,0 0,-28.375 36.21875,0 0,-184.25 21.4375,0 0,-92.125 z"
       style="fill:#000000;fill-opacity:0.1315789316;stroke:#000000;stroke-width:0.9992126226;stroke-linejoin:round;stroke-miterlimit:4;stroke-opacity:1;stroke-dasharray:none" />
    <path
       inkscape:tile-y0="295.057462"
       inkscape:tile-x0="277.9379351"
       sodipodi:nodetypes="ccccccccccccc"
       inkscape:connector-curvature="0"
       id="use4952"
       d="m 178.84763,-1117.034606 0,92.125 21.406251,0 0,184.2499996 36.25,0 0,28.375 46.0624996,0 0,-28.375 36.21875,0 0,-184.2499996 21.4375,0 0,-92.125 z"
       style="fill:#000000;fill-opacity:0.1315789316;stroke:#000000;stroke-width:0.9992126226;stroke-linejoin:round;stroke-miterlimit:4;stroke-opacity:1;stroke-dasharray:none" />
    <path
       inkscape:tile-y0="295.057462"
       inkscape:tile-x0="277.9379351"
       sodipodi:nodetypes="ccccccccccccc"
       inkscape:connector-curvature="0"
       id="use4954"
       d="m 186.9343811,-781.2852938 0,92.125 21.406251,0 0,184.25 36.25,0 0,28.375 46.0624996,0 0,-28.375 36.21875,0 0,-184.25 21.4375,0 0,-92.125 z"
       style="fill:#000000;fill-opacity:0.1315789316;stroke:#000000;stroke-width:0.9992126226;stroke-linejoin:round;stroke-miterlimit:4;stroke-opacity:1;stroke-dasharray:none" />
    <path
       inkscape:tile-y0="295.057462"
       inkscape:tile-x0="277.9379351"
       sodipodi:nodetypes="ccccccccccccc"
       inkscape:connector-curvature="0"
       id="use4956"
       d="m 186.9343811,-445.5359811 0,92.125 21.406251,0 0,184.25 36.25,0 0,28.375 46.0624996,0 0,-28.375 36.21875,0 0,-184.25 21.4375,0 0,-92.125 z"
       style="fill:#000000;fill-opacity:0.1315789316;stroke:#000000;stroke-width:0.9992126226;stroke-linejoin:round;stroke-miterlimit:4;stroke-opacity:1;stroke-dasharray:none" />
    <path
       inkscape:tile-y0="295.057462"
       inkscape:tile-x0="277.9379351"
       sodipodi:nodetypes="ccccccccccccc"
       inkscape:connector-curvature="0"
       id="use4958"
       d="m 186.9343811,-109.7866685 0,92.12499999 21.406251,0 0,184.25000001 36.25,0 0,28.375 46.0624996,0 0,-28.375 36.21875,0 0,-184.25000001 21.4375,0 0,-92.12499999 z"
       style="fill:#000000;fill-opacity:0.1315789316;stroke:#000000;stroke-width:0.9992126226;stroke-linejoin:round;stroke-miterlimit:4;stroke-opacity:1;stroke-dasharray:none" />
    <path
       inkscape:tile-y0="295.057462"
       inkscape:tile-x0="277.9379351"
       sodipodi:nodetypes="ccccccccccccc"
       inkscape:connector-curvature="0"
       id="use4960"
       d="m 186.9343811,225.9626441 0,92.125 21.406251,0 0,184.25 36.25,0 0,28.375 46.0624996,0 0,-28.375 36.21875,0 0,-184.25 21.4375,0 0,-92.125 z"
       style="fill:#000000;fill-opacity:0.1315789316;stroke:#000000;stroke-width:0.9992126226;stroke-linejoin:round;stroke-miterlimit:4;stroke-opacity:1;stroke-dasharray:none" />
    <path
       inkscape:tile-y0="295.057462"
       inkscape:tile-x0="277.9379351"
       sodipodi:nodetypes="ccccccccccccc"
       inkscape:connector-curvature="0"
       id="use4962"
       d="m 186.9343811,561.7119567 0,92.125 21.406251,0 0,184.25 36.25,0 0,28.375 46.0624996,0 0,-28.375 36.21875,0 0,-184.25 21.4375,0 0,-92.125 z"
       style="fill:#000000;fill-opacity:0.1315789316;stroke:#000000;stroke-width:0.9992126226;stroke-linejoin:round;stroke-miterlimit:4;stroke-opacity:1;stroke-dasharray:none" />
    <path
       inkscape:tile-y0="295.057462"
       inkscape:tile-x0="277.9379351"
       sodipodi:nodetypes="ccccccccccccc"
       inkscape:connector-curvature="0"
       id="use4964"
       d="m 371.2218432,-1788.533232 0,92.125 21.406251,0 0,184.25 36.25,0 0,28.375 46.0624996,0 0,-28.375 36.21875,0 0,-184.25 21.4375,0 0,-92.125 z"
       style="fill:#000000;fill-opacity:0.1315789316;stroke:#000000;stroke-width:0.9992126226;stroke-linejoin:round;stroke-miterlimit:4;stroke-opacity:1;stroke-dasharray:none" />
    <path
       inkscape:tile-y0="295.057462"
       inkscape:tile-x0="277.9379351"
       sodipodi:nodetypes="ccccccccccccc"
       inkscape:connector-curvature="0"
       id="use4966"
       d="m 371.2218432,-1452.783919 0,92.125 21.406251,0 0,184.25 36.25,0 0,28.375 46.0624996,0 0,-28.375 36.21875,0 0,-184.25 21.4375,0 0,-92.125 z"
       style="fill:#000000;fill-opacity:0.1315789316;stroke:#000000;stroke-width:0.9992126226;stroke-linejoin:round;stroke-miterlimit:4;stroke-opacity:1;stroke-dasharray:none" />
    <path
       inkscape:tile-y0="295.057462"
       inkscape:tile-x0="277.9379351"
       sodipodi:nodetypes="ccccccccccccc"
       inkscape:connector-curvature="0"
       id="use4968"
       d="m 371.2218432,-1117.034606 0,92.125 21.406251,0 0,184.2499996 36.25,0 0,28.375 46.0624996,0 0,-28.375 36.21875,0 0,-184.2499996 21.4375,0 0,-92.125 z"
       style="fill:#000000;fill-opacity:0.1315789316;stroke:#000000;stroke-width:0.9992126226;stroke-linejoin:round;stroke-miterlimit:4;stroke-opacity:1;stroke-dasharray:none" />
    <path
       inkscape:tile-y0="295.057462"
       inkscape:tile-x0="277.9379351"
       sodipodi:nodetypes="ccccccccccccc"
       inkscape:connector-curvature="0"
       id="use4970"
       d="m 379.3085944,-781.2852938 0,92.125 21.406251,0 0,184.25 36.25,0 0,28.375 46.0624996,0 0,-28.375 36.21875,0 0,-184.25 21.4375,0 0,-92.125 z"
       style="fill:#000000;fill-opacity:0.1315789316;stroke:#000000;stroke-width:0.9992126226;stroke-linejoin:round;stroke-miterlimit:4;stroke-opacity:1;stroke-dasharray:none" />
    <path
       inkscape:tile-y0="295.057462"
       inkscape:tile-x0="277.9379351"
       sodipodi:nodetypes="ccccccccccccc"
       inkscape:connector-curvature="0"
       id="use4972"
       d="m 379.3085944,-445.5359811 0,92.125 21.406251,0 0,184.25 36.25,0 0,28.375 46.0624996,0 0,-28.375 36.21875,0 0,-184.25 21.4375,0 0,-92.125 z"
       style="fill:#000000;fill-opacity:0.1315789316;stroke:#000000;stroke-width:0.9992126226;stroke-linejoin:round;stroke-miterlimit:4;stroke-opacity:1;stroke-dasharray:none" />
    <path
       inkscape:tile-y0="295.057462"
       inkscape:tile-x0="277.9379351"
       sodipodi:nodetypes="ccccccccccccc"
       inkscape:connector-curvature="0"
       id="use4974"
       d="m 379.3085944,-109.7866685 0,92.12499999 21.406251,0 0,184.25000001 36.25,0 0,28.375 46.0624996,0 0,-28.375 36.21875,0 0,-184.25000001 21.4375,0 0,-92.12499999 z"
       style="fill:#000000;fill-opacity:0.1315789316;stroke:#000000;stroke-width:0.9992126226;stroke-linejoin:round;stroke-miterlimit:4;stroke-opacity:1;stroke-dasharray:none" />
    <path
       inkscape:tile-y0="295.057462"
       inkscape:tile-x0="277.9379351"
       sodipodi:nodetypes="ccccccccccccc"
       inkscape:connector-curvature="0"
       id="use4976"
       d="m 379.3085944,225.9626441 0,92.125 21.406251,0 0,184.25 36.25,0 0,28.375 46.0624996,0 0,-28.375 36.21875,0 0,-184.25 21.4375,0 0,-92.125 z"
       style="fill:#000000;fill-opacity:0.1315789316;stroke:#000000;stroke-width:0.9992126226;stroke-linejoin:round;stroke-miterlimit:4;stroke-opacity:1;stroke-dasharray:none" />
    <path
       inkscape:tile-y0="295.057462"
       inkscape:tile-x0="277.9379351"
       sodipodi:nodetypes="ccccccccccccc"
       inkscape:connector-curvature="0"
       id="use4978"
       d="m 379.3085944,561.7119567 0,92.125 21.406251,0 0,184.25 36.25,0 0,28.375 46.0624996,0 0,-28.375 36.21875,0 0,-184.25 21.4375,0 0,-92.125 z"
       style="fill:#000000;fill-opacity:0.1315789316;stroke:#000000;stroke-width:0.9992126226;stroke-linejoin:round;stroke-miterlimit:4;stroke-opacity:1;stroke-dasharray:none" />
    <path
       inkscape:tile-y0="295.057462"
       inkscape:tile-x0="277.9379351"
       sodipodi:nodetypes="ccccccccccccc"
       inkscape:connector-curvature="0"
       id="use4980"
       d="m 563.5960564,-1788.533232 0,92.125 21.406251,0 0,184.25 36.25,0 0,28.375 46.0624996,0 0,-28.375 36.21875,0 0,-184.25 21.4375,0 0,-92.125 z"
       style="fill:#000000;fill-opacity:0.1315789316;stroke:#000000;stroke-width:0.9992126226;stroke-linejoin:round;stroke-miterlimit:4;stroke-opacity:1;stroke-dasharray:none" />
    <path
       inkscape:tile-y0="295.057462"
       inkscape:tile-x0="277.9379351"
       sodipodi:nodetypes="ccccccccccccc"
       inkscape:connector-curvature="0"
       id="use4982"
       d="m 563.5960564,-1452.783919 0,92.125 21.406251,0 0,184.25 36.25,0 0,28.375 46.0624996,0 0,-28.375 36.21875,0 0,-184.25 21.4375,0 0,-92.125 z"
       style="fill:#000000;fill-opacity:0.1315789316;stroke:#000000;stroke-width:0.9992126226;stroke-linejoin:round;stroke-miterlimit:4;stroke-opacity:1;stroke-dasharray:none" />
    <path
       inkscape:tile-y0="295.057462"
       inkscape:tile-x0="277.9379351"
       sodipodi:nodetypes="ccccccccccccc"
       inkscape:connector-curvature="0"
       id="use4984"
       d="m 563.5960564,-1117.034606 0,92.125 21.406251,0 0,184.2499996 36.25,0 0,28.375 46.0624996,0 0,-28.375 36.21875,0 0,-184.2499996 21.4375,0 0,-92.125 z"
       style="fill:#000000;fill-opacity:0.1315789316;stroke:#000000;stroke-width:0.9992126226;stroke-linejoin:round;stroke-miterlimit:4;stroke-opacity:1;stroke-dasharray:none" />
    <path
       inkscape:tile-y0="295.057462"
       inkscape:tile-x0="277.9379351"
       sodipodi:nodetypes="ccccccccccccc"
       inkscape:connector-curvature="0"
       id="use4986"
       d="m 571.6828076,-781.2852938 0,92.125 21.406251,0 0,184.25 36.25,0 0,28.375 46.0624996,0 0,-28.375 36.21875,0 0,-184.25 21.4375,0 0,-92.125 z"
       style="fill:#000000;fill-opacity:0.1315789316;stroke:#000000;stroke-width:0.9992126226;stroke-linejoin:round;stroke-miterlimit:4;stroke-opacity:1;stroke-dasharray:none" />
    <path
       inkscape:tile-y0="295.057462"
       inkscape:tile-x0="277.9379351"
       sodipodi:nodetypes="ccccccccccccc"
       inkscape:connector-curvature="0"
       id="use4988"
       d="m 571.6828076,-445.5359811 0,92.125 21.406251,0 0,184.25 36.25,0 0,28.375 46.0624996,0 0,-28.375 36.21875,0 0,-184.25 21.4375,0 0,-92.125 z"
       style="fill:#000000;fill-opacity:0.1315789316;stroke:#000000;stroke-width:0.9992126226;stroke-linejoin:round;stroke-miterlimit:4;stroke-opacity:1;stroke-dasharray:none" />
    <path
       inkscape:tile-y0="295.057462"
       inkscape:tile-x0="277.9379351"
       sodipodi:nodetypes="ccccccccccccc"
       inkscape:connector-curvature="0"
       id="use4990"
       d="m 571.6828076,-109.7866685 0,92.12499999 21.406251,0 0,184.25000001 36.25,0 0,28.375 46.0624996,0 0,-28.375 36.21875,0 0,-184.25000001 21.4375,0 0,-92.12499999 z"
       style="fill:#000000;fill-opacity:0.1315789316;stroke:#000000;stroke-width:0.9992126226;stroke-linejoin:round;stroke-miterlimit:4;stroke-opacity:1;stroke-dasharray:none" />
    <path
       inkscape:tile-y0="295.057462"
       inkscape:tile-x0="277.9379351"
       sodipodi:nodetypes="ccccccccccccc"
       inkscape:connector-curvature="0"
       id="use4992"
       d="m 571.6828076,225.9626441 0,92.125 21.406251,0 0,184.25 36.25,0 0,28.375 46.0624996,0 0,-28.375 36.21875,0 0,-184.25 21.4375,0 0,-92.125 z"
       style="fill:#000000;fill-opacity:0.1315789316;stroke:#000000;stroke-width:0.9992126226;stroke-linejoin:round;stroke-miterlimit:4;stroke-opacity:1;stroke-dasharray:none" />
    <path
       inkscape:tile-y0="295.057462"
       inkscape:tile-x0="277.9379351"
       sodipodi:nodetypes="ccccccccccccc"
       inkscape:connector-curvature="0"
       id="use4994"
       d="m 571.6828076,561.7119567 0,92.125 21.406251,0 0,184.25 36.25,0 0,28.375 46.0624996,0 0,-28.375 36.21875,0 0,-184.25 21.4375,0 0,-92.125 z"
       style="fill:#000000;fill-opacity:0.1315789316;stroke:#000000;stroke-width:0.9992126226;stroke-linejoin:round;stroke-miterlimit:4;stroke-opacity:1;stroke-dasharray:none" />
    <path
       inkscape:tile-y0="295.057462"
       inkscape:tile-x0="277.9379351"
       sodipodi:nodetypes="ccccccccccccc"
       inkscape:connector-curvature="0"
       id="use4996"
       d="m 755.9702697,-1788.533232 0,92.125 21.406251,0 0,184.25 36.25,0 0,28.375 46.0624996,0 0,-28.375 36.21875,0 0,-184.25 21.4375,0 0,-92.125 z"
       style="fill:#000000;fill-opacity:0.1315789316;stroke:#000000;stroke-width:0.9992126226;stroke-linejoin:round;stroke-miterlimit:4;stroke-opacity:1;stroke-dasharray:none" />
    <path
       inkscape:tile-y0="295.057462"
       inkscape:tile-x0="277.9379351"
       sodipodi:nodetypes="ccccccccccccc"
       inkscape:connector-curvature="0"
       id="use4998"
       d="m 755.9702697,-1452.783919 0,92.125 21.406251,0 0,184.25 36.25,0 0,28.375 46.0624996,0 0,-28.375 36.21875,0 0,-184.25 21.4375,0 0,-92.125 z"
       style="fill:#000000;fill-opacity:0.1315789316;stroke:#000000;stroke-width:0.9992126226;stroke-linejoin:round;stroke-miterlimit:4;stroke-opacity:1;stroke-dasharray:none" />
    <path
       inkscape:tile-y0="295.057462"
       inkscape:tile-x0="277.9379351"
       sodipodi:nodetypes="ccccccccccccc"
       inkscape:connector-curvature="0"
       id="use5000"
       d="m 755.9702697,-1117.034606 0,92.125 21.406251,0 0,184.2499996 36.25,0 0,28.375 46.0624996,0 0,-28.375 36.21875,0 0,-184.2499996 21.4375,0 0,-92.125 z"
       style="fill:#000000;fill-opacity:0.1315789316;stroke:#000000;stroke-width:0.9992126226;stroke-linejoin:round;stroke-miterlimit:4;stroke-opacity:1;stroke-dasharray:none" />
    <path
       inkscape:tile-y0="295.057462"
       inkscape:tile-x0="277.9379351"
       sodipodi:nodetypes="ccccccccccccc"
       inkscape:connector-curvature="0"
       id="use5002"
       d="m 764.0570208,-781.2852938 0,92.125 21.406251,0 0,184.25 36.25,0 0,28.375 46.0624996,0 0,-28.375 36.21875,0 0,-184.25 21.4375,0 0,-92.125 z"
       style="fill:#000000;fill-opacity:0.1315789316;stroke:#000000;stroke-width:0.9992126226;stroke-linejoin:round;stroke-miterlimit:4;stroke-opacity:1;stroke-dasharray:none" />
    <path
       inkscape:tile-y0="295.057462"
       inkscape:tile-x0="277.9379351"
       sodipodi:nodetypes="ccccccccccccc"
       inkscape:connector-curvature="0"
       id="use5004"
       d="m 764.0570208,-445.5359811 0,92.125 21.406251,0 0,184.25 36.25,0 0,28.375 46.0624996,0 0,-28.375 36.21875,0 0,-184.25 21.4375,0 0,-92.125 z"
       style="fill:#000000;fill-opacity:0.1315789316;stroke:#000000;stroke-width:0.9992126226;stroke-linejoin:round;stroke-miterlimit:4;stroke-opacity:1;stroke-dasharray:none" />
    <path
       inkscape:tile-y0="295.057462"
       inkscape:tile-x0="277.9379351"
       sodipodi:nodetypes="ccccccccccccc"
       inkscape:connector-curvature="0"
       id="use5006"
       d="m 764.0570208,-109.7866685 0,92.12499999 21.406251,0 0,184.25000001 36.25,0 0,28.375 46.0624996,0 0,-28.375 36.21875,0 0,-184.25000001 21.4375,0 0,-92.12499999 z"
       style="fill:#000000;fill-opacity:0.1315789316;stroke:#000000;stroke-width:0.9992126226;stroke-linejoin:round;stroke-miterlimit:4;stroke-opacity:1;stroke-dasharray:none" />
    <path
       inkscape:tile-y0="295.057462"
       inkscape:tile-x0="277.9379351"
       sodipodi:nodetypes="ccccccccccccc"
       inkscape:connector-curvature="0"
       id="use5008"
       d="m 764.0570208,225.9626441 0,92.125 21.406251,0 0,184.25 36.25,0 0,28.375 46.0624996,0 0,-28.375 36.21875,0 0,-184.25 21.4375,0 0,-92.125 z"
       style="fill:#000000;fill-opacity:0.1315789316;stroke:#000000;stroke-width:0.9992126226;stroke-linejoin:round;stroke-miterlimit:4;stroke-opacity:1;stroke-dasharray:none" />
    <path
       inkscape:tile-y0="295.057462"
       inkscape:tile-x0="277.9379351"
       sodipodi:nodetypes="ccccccccccccc"
       inkscape:connector-curvature="0"
       id="use5010"
       d="m 764.0570208,561.7119567 0,92.125 21.406251,0 0,184.25 36.25,0 0,28.375 46.0624996,0 0,-28.375 36.21875,0 0,-184.25 21.4375,0 0,-92.125 z"
       style="fill:#000000;fill-opacity:0.1315789316;stroke:#000000;stroke-width:0.9992126226;stroke-linejoin:round;stroke-miterlimit:4;stroke-opacity:1;stroke-dasharray:none" />
    <path
       inkscape:tile-y0="295.057462"
       inkscape:tile-x0="277.9379351"
       sodipodi:nodetypes="ccccccccccccc"
       inkscape:connector-curvature="0"
       id="use5012"
       d="m 948.3444829,-1788.533232 0,92.125 21.406251,0 0,184.25 36.2500001,0 0,28.375 46.0625,0 0,-28.375 36.21875,0 0,-184.25 21.4375,0 0,-92.125 z"
       style="fill:#000000;fill-opacity:0.1315789316;stroke:#000000;stroke-width:0.9992126226;stroke-linejoin:round;stroke-miterlimit:4;stroke-opacity:1;stroke-dasharray:none" />
    <path
       inkscape:tile-y0="295.057462"
       inkscape:tile-x0="277.9379351"
       sodipodi:nodetypes="ccccccccccccc"
       inkscape:connector-curvature="0"
       id="use5014"
       d="m 948.3444829,-1452.783919 0,92.125 21.406251,0 0,184.25 36.2500001,0 0,28.375 46.0625,0 0,-28.375 36.21875,0 0,-184.25 21.4375,0 0,-92.125 z"
       style="fill:#000000;fill-opacity:0.1315789316;stroke:#000000;stroke-width:0.9992126226;stroke-linejoin:round;stroke-miterlimit:4;stroke-opacity:1;stroke-dasharray:none" />
    <path
       inkscape:tile-y0="295.057462"
       inkscape:tile-x0="277.9379351"
       sodipodi:nodetypes="ccccccccccccc"
       inkscape:connector-curvature="0"
       id="use5016"
       d="m 948.3444829,-1117.034606 0,92.125 21.406251,0 0,184.2499996 36.2500001,0 0,28.375 46.0625,0 0,-28.375 36.21875,0 0,-184.2499996 21.4375,0 0,-92.125 z"
       style="fill:#000000;fill-opacity:0.1315789316;stroke:#000000;stroke-width:0.9992126226;stroke-linejoin:round;stroke-miterlimit:4;stroke-opacity:1;stroke-dasharray:none" />
    <path
       inkscape:tile-y0="295.057462"
       inkscape:tile-x0="277.9379351"
       sodipodi:nodetypes="ccccccccccccc"
       inkscape:connector-curvature="0"
       id="use5018"
       d="m 956.431234,-781.2852938 0,92.125 21.406251,0 0,184.25 36.25,0 0,28.375 46.0625,0 0,-28.375 36.21875,0 0,-184.25 21.4375,0 0,-92.125 z"
       style="fill:#000000;fill-opacity:0.1315789316;stroke:#000000;stroke-width:0.9992126226;stroke-linejoin:round;stroke-miterlimit:4;stroke-opacity:1;stroke-dasharray:none" />
    <path
       inkscape:tile-y0="295.057462"
       inkscape:tile-x0="277.9379351"
       sodipodi:nodetypes="ccccccccccccc"
       inkscape:connector-curvature="0"
       id="use5020"
       d="m 956.431234,-445.5359811 0,92.125 21.406251,0 0,184.25 36.25,0 0,28.375 46.0625,0 0,-28.375 36.21875,0 0,-184.25 21.4375,0 0,-92.125 z"
       style="fill:#000000;fill-opacity:0.1315789316;stroke:#000000;stroke-width:0.9992126226;stroke-linejoin:round;stroke-miterlimit:4;stroke-opacity:1;stroke-dasharray:none" />
    <path
       inkscape:tile-y0="295.057462"
       inkscape:tile-x0="277.9379351"
       sodipodi:nodetypes="ccccccccccccc"
       inkscape:connector-curvature="0"
       id="use5022"
       d="m 956.431234,-109.7866685 0,92.12499999 21.406251,0 0,184.25000001 36.25,0 0,28.375 46.0625,0 0,-28.375 36.21875,0 0,-184.25000001 21.4375,0 0,-92.12499999 z"
       style="fill:#000000;fill-opacity:0.1315789316;stroke:#000000;stroke-width:0.9992126226;stroke-linejoin:round;stroke-miterlimit:4;stroke-opacity:1;stroke-dasharray:none" />
    <path
       inkscape:tile-y0="295.057462"
       inkscape:tile-x0="277.9379351"
       sodipodi:nodetypes="ccccccccccccc"
       inkscape:connector-curvature="0"
       id="use5024"
       d="m 956.431234,225.9626441 0,92.125 21.406251,0 0,184.25 36.25,0 0,28.375 46.0625,0 0,-28.375 36.21875,0 0,-184.25 21.4375,0 0,-92.125 z"
       style="fill:#000000;fill-opacity:0.1315789316;stroke:#000000;stroke-width:0.9992126226;stroke-linejoin:round;stroke-miterlimit:4;stroke-opacity:1;stroke-dasharray:none" />
    <path
       inkscape:tile-y0="295.057462"
       inkscape:tile-x0="277.9379351"
       sodipodi:nodetypes="ccccccccccccc"
       inkscape:connector-curvature="0"
       id="use5026"
       d="m 956.431234,561.7119567 0,92.125 21.406251,0 0,184.25 36.25,0 0,28.375 46.0625,0 0,-28.375 36.21875,0 0,-184.25 21.4375,0 0,-92.125 z"
       style="fill:#000000;fill-opacity:0.1315789316;stroke:#000000;stroke-width:0.9992126226;stroke-linejoin:round;stroke-miterlimit:4;stroke-opacity:1;stroke-dasharray:none" />
    <path
       inkscape:tile-y0="295.057462"
       inkscape:tile-x0="277.9379351"
       sodipodi:nodetypes="ccccccccccccc"
       inkscape:connector-curvature="0"
       id="use5028"
       d="m 1140.718696,-1788.533232 0,92.125 21.406251,0 0,184.25 36.25,0 0,28.375 46.0625,0 0,-28.375 36.21875,0 0,-184.25 21.4375,0 0,-92.125 z"
       style="fill:#000000;fill-opacity:0.1315789316;stroke:#000000;stroke-width:0.9992126226;stroke-linejoin:round;stroke-miterlimit:4;stroke-opacity:1;stroke-dasharray:none" />
    <path
       inkscape:tile-y0="295.057462"
       inkscape:tile-x0="277.9379351"
       sodipodi:nodetypes="ccccccccccccc"
       inkscape:connector-curvature="0"
       id="use5030"
       d="m 1140.718696,-1452.783919 0,92.125 21.406251,0 0,184.25 36.25,0 0,28.375 46.0625,0 0,-28.375 36.21875,0 0,-184.25 21.4375,0 0,-92.125 z"
       style="fill:#000000;fill-opacity:0.1315789316;stroke:#000000;stroke-width:0.9992126226;stroke-linejoin:round;stroke-miterlimit:4;stroke-opacity:1;stroke-dasharray:none" />
    <path
       inkscape:tile-y0="295.057462"
       inkscape:tile-x0="277.9379351"
       sodipodi:nodetypes="ccccccccccccc"
       inkscape:connector-curvature="0"
       id="use5032"
       d="m 1140.718696,-1117.034606 0,92.125 21.406251,0 0,184.2499996 36.25,0 0,28.375 46.0625,0 0,-28.375 36.21875,0 0,-184.2499996 21.4375,0 0,-92.125 z"
       style="fill:#000000;fill-opacity:0.1315789316;stroke:#000000;stroke-width:0.9992126226;stroke-linejoin:round;stroke-miterlimit:4;stroke-opacity:1;stroke-dasharray:none" />
    <path
       inkscape:tile-y0="295.057462"
       inkscape:tile-x0="277.9379351"
       sodipodi:nodetypes="ccccccccccccc"
       inkscape:connector-curvature="0"
       id="use5034"
       d="m 1148.805447,-781.2852938 0,92.125 21.406251,0 0,184.25 36.25,0 0,28.375 46.0625,0 0,-28.375 36.21875,0 0,-184.25 21.4375,0 0,-92.125 z"
       style="fill:#000000;fill-opacity:0.1315789316;stroke:#000000;stroke-width:0.9992126226;stroke-linejoin:round;stroke-miterlimit:4;stroke-opacity:1;stroke-dasharray:none" />
    <path
       inkscape:tile-y0="295.057462"
       inkscape:tile-x0="277.9379351"
       sodipodi:nodetypes="ccccccccccccc"
       inkscape:connector-curvature="0"
       id="use5036"
       d="m 1148.805447,-445.5359811 0,92.125 21.406251,0 0,184.25 36.25,0 0,28.375 46.0625,0 0,-28.375 36.21875,0 0,-184.25 21.4375,0 0,-92.125 z"
       style="fill:#000000;fill-opacity:0.1315789316;stroke:#000000;stroke-width:0.9992126226;stroke-linejoin:round;stroke-miterlimit:4;stroke-opacity:1;stroke-dasharray:none" />
    <path
       inkscape:tile-y0="295.057462"
       inkscape:tile-x0="277.9379351"
       sodipodi:nodetypes="ccccccccccccc"
       inkscape:connector-curvature="0"
       id="use5038"
       d="m 1148.805447,-109.7866685 0,92.12499999 21.406251,0 0,184.25000001 36.25,0 0,28.375 46.0625,0 0,-28.375 36.21875,0 0,-184.25000001 21.4375,0 0,-92.12499999 z"
       style="fill:#000000;fill-opacity:0.1315789316;stroke:#000000;stroke-width:0.9992126226;stroke-linejoin:round;stroke-miterlimit:4;stroke-opacity:1;stroke-dasharray:none" />
    <path
       inkscape:tile-y0="295.057462"
       inkscape:tile-x0="277.9379351"
       sodipodi:nodetypes="ccccccccccccc"
       inkscape:connector-curvature="0"
       id="use5040"
       d="m 1148.805447,225.9626441 0,92.125 21.406251,0 0,184.25 36.25,0 0,28.375 46.0625,0 0,-28.375 36.21875,0 0,-184.25 21.4375,0 0,-92.125 z"
       style="fill:#000000;fill-opacity:0.1315789316;stroke:#000000;stroke-width:0.9992126226;stroke-linejoin:round;stroke-miterlimit:4;stroke-opacity:1;stroke-dasharray:none" />
    <path
       inkscape:tile-y0="295.057462"
       inkscape:tile-x0="277.9379351"
       sodipodi:nodetypes="ccccccccccccc"
       inkscape:connector-curvature="0"
       id="use5042"
       d="m 1148.805447,561.7119567 0,92.125 21.406251,0 0,184.25 36.25,0 0,28.375 46.0625,0 0,-28.375 36.21875,0 0,-184.25 21.4375,0 0,-92.125 z"
       style="fill:#000000;fill-opacity:0.1315789316;stroke:#000000;stroke-width:0.9992126226;stroke-linejoin:round;stroke-miterlimit:4;stroke-opacity:1;stroke-dasharray:none" />
    <path
       inkscape:tile-y0="295.057462"
       inkscape:tile-x0="277.9379351"
       sodipodi:nodetypes="ccccccccccccc"
       inkscape:connector-curvature="0"
       id="use5044"
       d="m 1333.09291,-1788.533232 0,92.125 21.406251,0 0,184.25 36.25,0 0,28.375 46.062499,0 0,-28.375 36.21875,0 0,-184.25 21.4375,0 0,-92.125 z"
       style="fill:#000000;fill-opacity:0.1315789316;stroke:#000000;stroke-width:0.9992126226;stroke-linejoin:round;stroke-miterlimit:4;stroke-opacity:1;stroke-dasharray:none" />
    <path
       inkscape:tile-y0="295.057462"
       inkscape:tile-x0="277.9379351"
       sodipodi:nodetypes="ccccccccccccc"
       inkscape:connector-curvature="0"
       id="use5046"
       d="m 1333.09291,-1452.783919 0,92.125 21.406251,0 0,184.25 36.25,0 0,28.375 46.062499,0 0,-28.375 36.21875,0 0,-184.25 21.4375,0 0,-92.125 z"
       style="fill:#000000;fill-opacity:0.1315789316;stroke:#000000;stroke-width:0.9992126226;stroke-linejoin:round;stroke-miterlimit:4;stroke-opacity:1;stroke-dasharray:none" />
    <path
       inkscape:tile-y0="295.057462"
       inkscape:tile-x0="277.9379351"
       sodipodi:nodetypes="ccccccccccccc"
       inkscape:connector-curvature="0"
       id="use5048"
       d="m 1333.09291,-1117.034606 0,92.125 21.406251,0 0,184.2499996 36.25,0 0,28.375 46.062499,0 0,-28.375 36.21875,0 0,-184.2499996 21.4375,0 0,-92.125 z"
       style="fill:#000000;fill-opacity:0.1315789316;stroke:#000000;stroke-width:0.9992126226;stroke-linejoin:round;stroke-miterlimit:4;stroke-opacity:1;stroke-dasharray:none" />
    <path
       inkscape:tile-y0="295.057462"
       inkscape:tile-x0="277.9379351"
       sodipodi:nodetypes="ccccccccccccc"
       inkscape:connector-curvature="0"
       id="use5050"
       d="m 1341.179661,-777.7841949 0,92.125 21.406251,0 0,184.25 36.25,0 0,28.375 46.062499,0 0,-28.375 36.21875,0 0,-184.25 21.4375,0 0,-92.125 z"
       style="fill:#000000;fill-opacity:0.1315789316;stroke:#000000;stroke-width:0.9992126226;stroke-linejoin:round;stroke-miterlimit:4;stroke-opacity:1;stroke-dasharray:none" />
    <path
       inkscape:tile-y0="295.057462"
       inkscape:tile-x0="277.9379351"
       sodipodi:nodetypes="ccccccccccccc"
       inkscape:connector-curvature="0"
       id="use5052"
       d="m 1341.179661,-442.0348823 0,92.125 21.406251,0 0,184.25 36.25,0 0,28.375 46.062499,0 0,-28.375 36.21875,0 0,-184.25 21.4375,0 0,-92.125 z"
       style="fill:#000000;fill-opacity:0.1315789316;stroke:#000000;stroke-width:0.9992126226;stroke-linejoin:round;stroke-miterlimit:4;stroke-opacity:1;stroke-dasharray:none" />
    <path
       inkscape:tile-y0="295.057462"
       inkscape:tile-x0="277.9379351"
       sodipodi:nodetypes="ccccccccccccc"
       inkscape:connector-curvature="0"
       id="use5054"
       d="m 1341.179661,-106.2855697 0,92.12500003 21.406251,0 0,184.24999997 36.25,0 0,28.375 46.062499,0 0,-28.375 36.21875,0 0,-184.24999997 21.4375,0 0,-92.12500003 z"
       style="fill:#000000;fill-opacity:0.1315789316;stroke:#000000;stroke-width:0.9992126226;stroke-linejoin:round;stroke-miterlimit:4;stroke-opacity:1;stroke-dasharray:none" />
    <path
       inkscape:tile-y0="295.057462"
       inkscape:tile-x0="277.9379351"
       sodipodi:nodetypes="ccccccccccccc"
       inkscape:connector-curvature="0"
       id="use5056"
       d="m 1341.179661,229.4637429 0,92.125 21.406251,0 0,184.25 36.25,0 0,28.375 46.062499,0 0,-28.375 36.21875,0 0,-184.25 21.4375,0 0,-92.125 z"
       style="fill:#000000;fill-opacity:0.1315789316;stroke:#000000;stroke-width:0.9992126226;stroke-linejoin:round;stroke-miterlimit:4;stroke-opacity:1;stroke-dasharray:none" />
    <path
       inkscape:tile-y0="295.057462"
       inkscape:tile-x0="277.9379351"
       sodipodi:nodetypes="ccccccccccccc"
       inkscape:connector-curvature="0"
       id="use5060"
       d="m 1525.467122,-1785.032133 0,92.125 21.406251,0 0,184.25 36.25,0 0,28.375 46.0625,0 0,-28.375 36.21875,0 0,-184.25 21.4375,0 0,-92.125 z"
       style="fill:#000000;fill-opacity:0.1315789316;stroke:#000000;stroke-width:0.9992126226;stroke-linejoin:round;stroke-miterlimit:4;stroke-opacity:1;stroke-dasharray:none" />
    <path
       inkscape:tile-y0="295.057462"
       inkscape:tile-x0="277.9379351"
       sodipodi:nodetypes="ccccccccccccc"
       inkscape:connector-curvature="0"
       id="use5062"
       d="m 1525.467122,-1449.28282 0,92.125 21.406251,0 0,184.25 36.25,0 0,28.375 46.0625,0 0,-28.375 36.21875,0 0,-184.25 21.4375,0 0,-92.125 z"
       style="fill:#000000;fill-opacity:0.1315789316;stroke:#000000;stroke-width:0.9992126226;stroke-linejoin:round;stroke-miterlimit:4;stroke-opacity:1;stroke-dasharray:none" />
    <path
       inkscape:tile-y0="295.057462"
       inkscape:tile-x0="277.9379351"
       sodipodi:nodetypes="ccccccccccccc"
       inkscape:connector-curvature="0"
       id="use5064"
       d="m 1525.467122,-1113.533508 0,92.125 21.406251,0 0,184.2500004 36.25,0 0,28.375 46.0625,0 0,-28.375 36.21875,0 0,-184.2500004 21.4375,0 0,-92.125 z"
       style="fill:#000000;fill-opacity:0.1315789316;stroke:#000000;stroke-width:0.9992126226;stroke-linejoin:round;stroke-miterlimit:4;stroke-opacity:1;stroke-dasharray:none" />
    <path
       inkscape:tile-y0="295.057462"
       inkscape:tile-x0="277.9379351"
       sodipodi:nodetypes="ccccccccccccc"
       inkscape:connector-curvature="0"
       id="use5066"
       d="m 1533.553874,-777.7841949 0,92.125 21.406251,0 0,184.25 36.25,0 0,28.375 46.0625,0 0,-28.375 36.21875,0 0,-184.25 21.4375,0 0,-92.125 z"
       style="fill:#000000;fill-opacity:0.1315789316;stroke:#000000;stroke-width:0.9992126226;stroke-linejoin:round;stroke-miterlimit:4;stroke-opacity:1;stroke-dasharray:none" />
    <path
       inkscape:tile-y0="295.057462"
       inkscape:tile-x0="277.9379351"
       sodipodi:nodetypes="ccccccccccccc"
       inkscape:connector-curvature="0"
       id="use5068"
       d="m 1533.553874,-442.0348823 0,92.125 21.406251,0 0,184.25 36.25,0 0,28.375 46.0625,0 0,-28.375 36.21875,0 0,-184.25 21.4375,0 0,-92.125 z"
       style="fill:#000000;fill-opacity:0.1315789316;stroke:#000000;stroke-width:0.9992126226;stroke-linejoin:round;stroke-miterlimit:4;stroke-opacity:1;stroke-dasharray:none" />
    <path
       inkscape:tile-y0="295.057462"
       inkscape:tile-x0="277.9379351"
       sodipodi:nodetypes="ccccccccccccc"
       inkscape:connector-curvature="0"
       id="use5070"
       d="m 1533.553874,-106.2855697 0,92.12500003 21.406251,0 0,184.24999997 36.25,0 0,28.375 46.0625,0 0,-28.375 36.21875,0 0,-184.24999997 21.4375,0 0,-92.12500003 z"
       style="fill:#000000;fill-opacity:0.1315789316;stroke:#000000;stroke-width:0.9992126226;stroke-linejoin:round;stroke-miterlimit:4;stroke-opacity:1;stroke-dasharray:none" />
    <path
       inkscape:tile-y0="295.057462"
       inkscape:tile-x0="277.9379351"
       sodipodi:nodetypes="ccccccccccccc"
       inkscape:connector-curvature="0"
       id="use5072"
       d="m 1533.553874,229.4637429 0,92.125 21.406251,0 0,184.25 36.25,0 0,28.375 46.0625,0 0,-28.375 36.21875,0 0,-184.25 21.4375,0 0,-92.125 z"
       style="fill:#000000;fill-opacity:0.1315789316;stroke:#000000;stroke-width:0.9992126226;stroke-linejoin:round;stroke-miterlimit:4;stroke-opacity:1;stroke-dasharray:none" />
    <path
       inkscape:tile-y0="295.057462"
       inkscape:tile-x0="277.9379351"
       sodipodi:nodetypes="ccccccccccccc"
       inkscape:connector-curvature="0"
       id="use5076"
       d="m 1717.841336,-1785.032133 0,92.125 21.406251,0 0,184.25 36.25,0 0,28.375 46.0625,0 0,-28.375 36.21875,0 0,-184.25 21.4375,0 0,-92.125 z"
       style="fill:#000000;fill-opacity:0.1315789316;stroke:#000000;stroke-width:0.9992126226;stroke-linejoin:round;stroke-miterlimit:4;stroke-opacity:1;stroke-dasharray:none" />
    <path
       inkscape:tile-y0="295.057462"
       inkscape:tile-x0="277.9379351"
       sodipodi:nodetypes="ccccccccccccc"
       inkscape:connector-curvature="0"
       id="use5078"
       d="m 1717.841336,-1449.28282 0,92.125 21.406251,0 0,184.25 36.25,0 0,28.375 46.0625,0 0,-28.375 36.21875,0 0,-184.25 21.4375,0 0,-92.125 z"
       style="fill:#000000;fill-opacity:0.1315789316;stroke:#000000;stroke-width:0.9992126226;stroke-linejoin:round;stroke-miterlimit:4;stroke-opacity:1;stroke-dasharray:none" />
    <path
       inkscape:tile-y0="295.057462"
       inkscape:tile-x0="277.9379351"
       sodipodi:nodetypes="ccccccccccccc"
       inkscape:connector-curvature="0"
       id="use5080"
       d="m 1717.841336,-1113.533508 0,92.125 21.406251,0 0,184.2500004 36.25,0 0,28.375 46.0625,0 0,-28.375 36.21875,0 0,-184.2500004 21.4375,0 0,-92.125 z"
       style="fill:#000000;fill-opacity:0.1315789316;stroke:#000000;stroke-width:0.9992126226;stroke-linejoin:round;stroke-miterlimit:4;stroke-opacity:1;stroke-dasharray:none" />
    <path
       inkscape:tile-y0="295.057462"
       inkscape:tile-x0="277.9379351"
       sodipodi:nodetypes="ccccccccccccc"
       inkscape:connector-curvature="0"
       id="use5082"
       d="m 1725.928087,-777.7841949 0,92.125 21.406251,0 0,184.25 36.25,0 0,28.375 46.0625,0 0,-28.375 36.21875,0 0,-184.25 21.4375,0 0,-92.125 z"
       style="fill:#000000;fill-opacity:0.1315789316;stroke:#000000;stroke-width:0.9992126226;stroke-linejoin:round;stroke-miterlimit:4;stroke-opacity:1;stroke-dasharray:none" />
    <path
       inkscape:tile-y0="295.057462"
       inkscape:tile-x0="277.9379351"
       sodipodi:nodetypes="ccccccccccccc"
       inkscape:connector-curvature="0"
       id="use5084"
       d="m 1725.928087,-442.0348823 0,92.125 21.406251,0 0,184.25 36.25,0 0,28.375 46.0625,0 0,-28.375 36.21875,0 0,-184.25 21.4375,0 0,-92.125 z"
       style="fill:#000000;fill-opacity:0.1315789316;stroke:#000000;stroke-width:0.9992126226;stroke-linejoin:round;stroke-miterlimit:4;stroke-opacity:1;stroke-dasharray:none" />
    <path
       inkscape:tile-y0="295.057462"
       inkscape:tile-x0="277.9379351"
       sodipodi:nodetypes="ccccccccccccc"
       inkscape:connector-curvature="0"
       id="use5086"
       d="m 1725.928087,-106.2855697 0,92.12500003 21.406251,0 0,184.24999997 36.25,0 0,28.375 46.0625,0 0,-28.375 36.21875,0 0,-184.24999997 21.4375,0 0,-92.12500003 z"
       style="fill:#000000;fill-opacity:0.1315789316;stroke:#000000;stroke-width:0.9992126226;stroke-linejoin:round;stroke-miterlimit:4;stroke-opacity:1;stroke-dasharray:none" />
    <path
       inkscape:tile-y0="295.057462"
       inkscape:tile-x0="277.9379351"
       sodipodi:nodetypes="ccccccccccccc"
       inkscape:connector-curvature="0"
       id="use5088"
       d="m 1725.928087,229.4637429 0,92.125 21.406251,0 0,184.25 36.25,0 0,28.375 46.0625,0 0,-28.375 36.21875,0 0,-184.25 21.4375,0 0,-92.125 z"
       style="fill:#000000;fill-opacity:0.1315789316;stroke:#000000;stroke-width:0.9992126226;stroke-linejoin:round;stroke-miterlimit:4;stroke-opacity:1;stroke-dasharray:none" />
    <path
       inkscape:tile-y0="295.057462"
       inkscape:tile-x0="277.9379351"
       sodipodi:nodetypes="ccccccccccccc"
       inkscape:connector-curvature="0"
       id="use5092"
       d="m 1910.21555,-1785.032133 0,92.125 21.406251,0 0,184.25 36.25,0 0,28.375 46.0625,0 0,-28.375 36.21875,0 0,-184.25 21.4375,0 0,-92.125 z"
       style="fill:#000000;fill-opacity:0.1315789316;stroke:#000000;stroke-width:0.9992126226;stroke-linejoin:round;stroke-miterlimit:4;stroke-opacity:1;stroke-dasharray:none" />
    <path
       inkscape:tile-y0="295.057462"
       inkscape:tile-x0="277.9379351"
       sodipodi:nodetypes="ccccccccccccc"
       inkscape:connector-curvature="0"
       id="use5094"
       d="m 1910.21555,-1449.28282 0,92.125 21.406251,0 0,184.25 36.25,0 0,28.375 46.0625,0 0,-28.375 36.21875,0 0,-184.25 21.4375,0 0,-92.125 z"
       style="fill:#000000;fill-opacity:0.1315789316;stroke:#000000;stroke-width:0.9992126226;stroke-linejoin:round;stroke-miterlimit:4;stroke-opacity:1;stroke-dasharray:none" />
    <path
       inkscape:tile-y0="295.057462"
       inkscape:tile-x0="277.9379351"
       sodipodi:nodetypes="ccccccccccccc"
       inkscape:connector-curvature="0"
       id="use5096"
       d="m 1910.21555,-1113.533508 0,92.125 21.406251,0 0,184.2500004 36.25,0 0,28.375 46.0625,0 0,-28.375 36.21875,0 0,-184.2500004 21.4375,0 0,-92.125 z"
       style="fill:#000000;fill-opacity:0.1315789316;stroke:#000000;stroke-width:0.9992126226;stroke-linejoin:round;stroke-miterlimit:4;stroke-opacity:1;stroke-dasharray:none" />
    <path
       inkscape:tile-y0="295.057462"
       inkscape:tile-x0="277.9379351"
       sodipodi:nodetypes="ccccccccccccc"
       inkscape:connector-curvature="0"
       id="use5098"
       d="m 1918.302301,-777.7841949 0,92.125 21.406251,0 0,184.25 36.25,0 0,28.375 46.0625,0 0,-28.375 36.21875,0 0,-184.25 21.4375,0 0,-92.125 z"
       style="fill:#000000;fill-opacity:0.1315789316;stroke:#000000;stroke-width:0.9992126226;stroke-linejoin:round;stroke-miterlimit:4;stroke-opacity:1;stroke-dasharray:none" />
    <path
       inkscape:tile-y0="295.057462"
       inkscape:tile-x0="277.9379351"
       sodipodi:nodetypes="ccccccccccccc"
       inkscape:connector-curvature="0"
       id="use5100"
       d="m 1918.302301,-442.0348823 0,92.125 21.406251,0 0,184.25 36.25,0 0,28.375 46.0625,0 0,-28.375 36.21875,0 0,-184.25 21.4375,0 0,-92.125 z"
       style="fill:#000000;fill-opacity:0.1315789316;stroke:#000000;stroke-width:0.9992126226;stroke-linejoin:round;stroke-miterlimit:4;stroke-opacity:1;stroke-dasharray:none" />
    <path
       inkscape:tile-y0="295.057462"
       inkscape:tile-x0="277.9379351"
       sodipodi:nodetypes="ccccccccccccc"
       inkscape:connector-curvature="0"
       id="use5102"
       d="m 1918.302301,-106.2855697 0,92.12500003 21.406251,0 0,184.24999997 36.25,0 0,28.375 46.0625,0 0,-28.375 36.21875,0 0,-184.24999997 21.4375,0 0,-92.12500003 z"
       style="fill:#000000;fill-opacity:0.1315789316;stroke:#000000;stroke-width:0.9992126226;stroke-linejoin:round;stroke-miterlimit:4;stroke-opacity:1;stroke-dasharray:none" />
    <path
       inkscape:tile-y0="295.057462"
       inkscape:tile-x0="277.9379351"
       sodipodi:nodetypes="ccccccccccccc"
       inkscape:connector-curvature="0"
       id="use5104"
       d="m 1918.302301,229.4637429 0,92.125 21.406251,0 0,184.25 36.25,0 0,28.375 46.0625,0 0,-28.375 36.21875,0 0,-184.25 21.4375,0 0,-92.125 z"
       style="fill:#000000;fill-opacity:0.1315789316;stroke:#000000;stroke-width:0.9992126226;stroke-linejoin:round;stroke-miterlimit:4;stroke-opacity:1;stroke-dasharray:none" />
  </g>
</svg>
